<?xml version="1.0" encoding="UTF-8"?>
<svg width="1024px" height="1024px" viewBox="0 0 1024 1024" version="1.1" xmlns="http://www.w3.org/2000/svg" xmlns:xlink="http://www.w3.org/1999/xlink" style="background: #1B1E36;">
    <!-- Generator: Sketch 49.1 (51147) - http://www.bohemiancoding.com/sketch -->
    <title>icon/validator</title>
    <desc>Created with Sketch.</desc>
    <defs>
        <path d="M262.559829,1.06071932 C406.386891,1.06071932 522.981934,117.636665 522.981934,261.440171 C522.981934,405.243677 406.386891,521.819623 262.559829,521.819623 C118.732767,521.819623 2.13772444,405.243677 2.13772444,261.440171 C2.13772444,117.636665 118.732767,1.06071932 262.559829,1.06071932 Z" id="path-1"></path>
    </defs>
    <g id="icon/validator" stroke="none" stroke-width="1" fill="none" fill-rule="evenodd">
        <g id="validator" transform="translate(128.000000, 128.000000)">
            <rect id="Rectangle" x="-46" y="-46" width="860" height="860"></rect>
            <path d="M382,768 L382,324 L152.502683,437.528749 C147.808539,432.730385 175.99047,463.558791 237.048474,530.013968 C298.106478,596.469145 346.423653,675.797822 382,768 Z" id="cone-1-copy" fill="#B7B9C8" fill-rule="evenodd"></path>
            <path d="M612,768 L612,324 L382.502683,437.528749 C377.808539,432.730385 405.99047,463.558791 467.048474,530.013968 C528.106478,596.469145 576.423653,675.797822 612,768 Z" id="cone-1-copy-2" fill="#B7B9C8" fill-rule="evenodd" transform="translate(497.000000, 546.000000) scale(-1, 1) translate(-497.000000, -546.000000) "></path>
            <g id="Logo" stroke-width="1" fill-rule="evenodd" transform="translate(120.000000, 4.000000)">
                <g id="Inner-Border">
                    <use fill="#2E3148" fill-rule="evenodd" xlink:href="#path-1"></use>
                    <path stroke="#6F7390" stroke-width="10.192" d="M262.559829,6.15671932 C121.547023,6.15671932 7.23372444,120.451295 7.23372444,261.440171 C7.23372444,402.429047 121.547023,516.723623 262.559829,516.723623 C403.572635,516.723623 517.885934,402.429047 517.885934,261.440171 C517.885934,120.451295 403.572635,6.15671932 262.559829,6.15671932 Z"></path>
                </g>
                <path d="M262.914423,116.735066 C343.296615,116.735066 408.459271,181.897723 408.459271,262.279915 C408.459271,342.662106 343.296615,407.824763 262.914423,407.824763 C182.532232,407.824763 117.369575,342.662106 117.369575,262.279915 C117.369575,181.897723 182.532232,116.735066 262.914423,116.735066 Z" id="15mm-Inset-Area" fill="#1B1E36"></path>
                <path d="M264.150072,46.3359472 C254.457725,46.3359472 242.859592,68.3979107 234.239359,107.165755 C225.172716,147.941246 219.971953,203.240114 219.971953,262.279915 C219.971953,321.319715 225.172716,376.618583 234.239359,417.394074 C242.859592,456.161918 254.457725,478.223882 264.150072,478.223882 C273.842374,478.223882 285.440507,456.1619 294.060748,417.394073 C303.127411,376.618548 308.328191,321.319673 308.328191,262.279915 C308.328191,203.240156 303.127411,147.941281 294.060748,107.165757 C285.440507,68.397929 273.842374,46.3359472 264.150072,46.3359472 Z" id="Ellipse-1" stroke="#6F7390" stroke-width="9.87130368"></path>
                <path d="M451.279287,154.310314 C446.433555,145.922811 421.513088,146.915675 383.60766,158.838741 C343.739136,171.379294 293.218323,194.527397 242.056267,224.047232 C190.894335,253.566881 145.57448,285.717499 114.772989,313.95252 C85.4897372,340.795806 72.1706847,361.864963 77.0144703,370.249479 C81.860151,378.637021 106.780636,377.644171 144.686118,365.721088 C184.554642,353.180536 235.075454,330.032432 286.237511,300.512597 C337.399513,270.992908 382.719349,238.842341 413.520791,210.607396 C442.804027,183.764154 456.123063,162.695028 451.279286,154.310312 Z" id="Ellipse-1-copy" stroke="#6F7390" stroke-width="9.87130368"></path>
                <path d="M451.279308,370.249479 L451.279275,370.249535 C456.123093,361.864963 442.804041,340.795806 413.520789,313.95252 C382.719298,285.717499 337.399443,253.566881 286.237503,224.047228 C235.075454,194.527397 184.554642,171.379294 144.686118,158.838741 C106.780636,146.915658 81.860151,145.922808 77.0145136,154.310275 C72.1706756,162.694966 85.4897083,183.764115 114.772987,210.607396 C145.574428,238.842341 190.894265,270.992908 242.056275,300.512601 C293.218323,330.032432 343.739136,353.180536 383.60766,365.721088 C421.513142,377.644171 446.433627,378.637021 451.279308,370.249479 Z" id="Ellipse-1-copy-2" stroke="#6F7390" stroke-width="9.87130368"></path>
                <path d="M122.971584,200.423401 C131.549851,200.423401 138.50394,207.38087 138.50394,215.96333 C138.50394,224.545789 131.549851,231.503259 122.971584,231.503259 C114.393318,231.503259 107.439229,224.545789 107.439229,215.96333 C107.439229,207.38087 114.393318,200.423401 122.971584,200.423401 Z" id="Dot-copy" fill="#B7B9C8"></path>
                <path d="M369.829237,147.208574 C378.411697,147.208574 385.369166,154.16601 385.369166,162.748503 C385.369166,171.330962 378.411697,178.288432 369.829237,178.288432 C361.246745,178.288432 354.289308,171.330962 354.289308,162.748503 C354.289308,154.16601 361.246745,147.208574 369.829237,147.208574 Z" id="Dot-copy-2" fill="#B7B9C8"></path>
                <path d="M232.850332,391.117397 C241.432792,391.117397 248.390261,398.071453 248.390261,406.649752 C248.390261,415.228019 241.432792,422.182108 232.850332,422.182108 C224.267872,422.182108 217.310403,415.228019 217.310403,406.649752 C217.310403,398.071453 224.267872,391.117397 232.850332,391.117397 Z" id="Dot-copy-3" fill="#B7B9C8"></path>
                <path d="M264.410359,235.855769 C278.943851,235.855769 290.725578,247.637496 290.725578,262.171043 C290.725578,276.704535 278.943851,288.486262 264.410359,288.486262 C249.876866,288.486262 238.095086,276.704535 238.095086,262.171043 C238.095086,247.637496 249.876866,235.855769 264.410359,235.855769 Z" id="Nucleus" fill="#B7B9C8"></path>
            </g>
        </g>
    </g>
</svg>