<?xml version="1.0" encoding="UTF-8"?>
<svg width="1024px" height="1024px" viewBox="0 0 1024 1024" version="1.1" xmlns="http://www.w3.org/2000/svg" xmlns:xlink="http://www.w3.org/1999/xlink" style="background: #1B1E36;">
    <!-- Generator: Sketch 49 (51002) - http://www.bohemiancoding.com/sketch -->
    <title>icon/atom</title>
    <desc>Created with Sketch.</desc>
    <defs>
        <path d="M385.140167,48.437303 C426.348349,48.437303 459.754337,198.673893 459.754337,384 C459.754337,569.326107 426.348349,719.562697 385.140167,719.562697 C343.931833,719.562697 310.525996,569.326107 310.525996,384 C310.525996,198.673893 343.931833,48.437303 385.140167,48.437303 Z" id="path-1"></path>
        <path d="M675.921582,216.220509 C696.525775,251.886399 583.039585,355.916488 422.443008,448.578246 C261.846431,541.240364 114.953898,587.44502 94.3490801,551.779491 C73.7448872,516.113962 187.231077,412.083512 347.827654,319.421754 C508.424231,226.759636 655.316764,180.55498 675.921582,216.220509 Z" id="path-2"></path>
        <path d="M675.921582,551.779491 C655.316764,587.44502 508.424231,541.240364 347.827654,448.578246 C187.231077,355.916488 73.7448872,251.886399 94.3490801,216.220509 C114.953898,180.55498 261.846431,226.759636 422.443008,319.421754 C583.039585,412.083512 696.525775,516.113962 675.921582,551.779491 Z" id="path-3"></path>
    </defs>
    <g id="icon/atom" stroke="none" stroke-width="1" fill="none" fill-rule="evenodd">
        <g id="brandmark/1024" transform="translate(128.000000, 128.000000)">
            <path d="M384,0.73728 C595.670016,0.73728 767.26272,172.329984 767.26272,384 C767.26272,595.670016 595.670016,767.26272 384,767.26272 C172.329984,767.26272 0.73728,595.670016 0.73728,384 C0.73728,172.329984 172.329984,0.73728 384,0.73728 Z" id="Inner-Border" fill="#2E3148" fill-rule="evenodd"></path>
            <path d="M383.262956,162.886699 C505.380447,162.886699 604.376257,261.882509 604.376257,384 C604.376257,506.117491 505.380447,605.113301 383.262956,605.113301 C261.145465,605.113301 162.149655,506.117491 162.149655,384 C162.149655,261.882509 261.145465,162.886699 383.262956,162.886699 Z" id="15mm-Inset-Area" fill="#1B1E36" fill-rule="evenodd"></path>
            <g id="Ellipse-1">
                <use fill-opacity="0" fill="#000000" fill-rule="evenodd" xlink:href="#path-1"></use>
                <path stroke="#6F7390" stroke-width="15" d="M385.140167,55.937303 C378.553397,55.937303 370.682378,63.180854 362.735488,78.2974248 C354.229079,94.4783128 346.370475,118.35527 339.701153,148.349268 C325.92704,210.295702 318.025996,294.306216 318.025996,384 C318.025996,473.693784 325.92704,557.704298 339.701153,619.650732 C346.370475,649.64473 354.229079,673.521687 362.735488,689.702575 C370.682378,704.819146 378.553397,712.062697 385.140167,712.062697 C391.726896,712.062697 399.597898,704.819145 407.544781,689.702577 C416.051186,673.521684 423.909794,649.644722 430.579124,619.65073 C444.353268,557.704245 452.254337,473.693721 452.254337,384 C452.254337,294.306279 444.353268,210.295755 430.579124,148.34927 C423.909794,118.355278 416.051186,94.4783162 407.544781,78.2974227 C399.597898,63.1808547 391.726896,55.937303 385.140167,55.937303 Z"></path>
            </g>
            <g id="Ellipse-1-copy">
                <use fill-opacity="0" fill="#000000" fill-rule="evenodd" xlink:href="#path-2"></use>
                <path stroke="#6F7390" stroke-width="15" d="M669.427407,219.972267 C666.135092,214.273597 655.920815,211.082508 638.84671,211.762753 C620.570478,212.490891 595.949237,217.627844 566.621933,226.85268 C506.05337,245.904383 429.301718,281.07118 351.575872,325.917973 C273.850215,370.764483 204.999902,419.607979 158.206044,462.502836 C135.548787,483.272224 118.786979,502.012487 109.018326,517.465334 C99.8933322,531.89999 97.5524607,542.33142 100.843221,548.027673 C104.135498,553.72638 114.349787,556.917494 131.423952,556.237247 C149.700184,555.509109 174.321425,550.372156 203.648729,541.14732 C264.217293,522.095617 340.968944,486.92882 418.69479,442.082027 C496.420553,397.235455 565.270838,348.392039 612.064621,305.497297 C634.721886,284.727923 651.483687,265.987676 661.252334,250.534821 C670.377306,236.100185 672.718195,225.668723 669.427408,219.97227 Z M669.427408,219.97227 C669.427398,219.972251 669.427387,219.972232 669.427376,219.972213 L669.427441,219.972327 C669.42743,219.972307 669.427418,219.972287 669.427407,219.972267 Z"></path>
            </g>
            <g id="Ellipse-1-copy-2">
                <use fill-opacity="0" fill="#000000" fill-rule="evenodd" xlink:href="#path-3"></use>
                <path stroke="#6F7390" stroke-width="15" d="M669.427441,548.027673 L669.427392,548.027758 C672.718201,542.33142 670.37733,531.89999 661.252336,517.465334 C651.483683,502.012487 634.721875,483.272224 612.064618,462.502836 C565.27076,419.607979 496.420447,370.764483 418.694779,325.917967 C340.968944,281.07118 264.217293,245.904383 203.648729,226.85268 C174.321425,217.627844 149.700184,212.490891 131.423952,211.762753 C114.349787,211.082506 104.135498,214.27362 100.843286,219.972213 C97.5524513,225.668654 99.8933258,236.100137 109.018328,250.534821 C118.786975,265.987676 135.548776,284.727923 158.206041,305.497297 C204.999824,348.392039 273.850109,397.235455 351.575883,442.082033 C429.301718,486.92882 506.05337,522.095617 566.621933,541.14732 C595.949237,550.372156 620.570478,555.509109 638.84671,556.237247 C655.920875,556.917494 666.135164,553.72638 669.427441,548.027673 Z"></path>
            </g>
            <path d="M170.660287,290.026918 C183.692482,290.026918 194.257209,300.59678 194.257209,313.635345 C194.257209,326.673911 183.692482,337.243773 170.660287,337.243773 C157.628092,337.243773 147.063366,326.673911 147.063366,313.635345 C147.063366,300.59678 157.628092,290.026918 170.660287,290.026918 Z" id="Dot-copy" fill="#B7B9C8" fill-rule="evenodd"></path>
            <path d="M545.689093,209.182379 C558.727658,209.182379 569.29752,219.752192 569.29752,232.790807 C569.29752,245.829372 558.727658,256.399234 545.689093,256.399234 C532.650478,256.399234 522.080665,245.829372 522.080665,232.790807 C522.080665,219.752192 532.650478,209.182379 545.689093,209.182379 Z" id="Dot-copy-2" fill="#B7B9C8" fill-rule="evenodd"></path>
            <path d="M337.589265,579.731291 C350.62783,579.731291 361.197692,590.295968 361.197692,603.328213 C361.197692,616.360408 350.62783,626.925134 337.589265,626.925134 C324.550699,626.925134 313.980837,616.360408 313.980837,603.328213 C313.980837,590.295968 324.550699,579.731291 337.589265,579.731291 Z" id="Dot-copy-3" fill="#B7B9C8" fill-rule="evenodd"></path>
            <path d="M383.825203,343.855093 C405.900038,343.855093 423.795232,361.750287 423.795232,383.825203 C423.795232,405.900038 405.900038,423.795232 383.825203,423.795232 C361.750369,423.795232 343.855093,405.900038 343.855093,383.825203 C343.855093,361.750287 361.750369,343.855093 383.825203,343.855093 Z" id="Nucleus" fill="#B7B9C8" fill-rule="evenodd"></path>
        </g>
    </g>
</svg>