<?xml version="1.0" encoding="UTF-8"?>
<svg width="1024px" height="1024px" viewBox="0 0 1024 1024" version="1.1" xmlns="http://www.w3.org/2000/svg" xmlns:xlink="http://www.w3.org/1999/xlink" style="background: #1B1E36;">
    <!-- Generator: Sketch 49 (51002) - http://www.bohemiancoding.com/sketch -->
    <title>icon/photon</title>
    <desc>Created with Sketch.</desc>
    <defs>
        <path d="M384,0.73728 C595.670016,0.73728 767.26272,172.329984 767.26272,384 C767.26272,595.670016 595.670016,767.26272 384,767.26272 C172.329984,767.26272 0.73728,595.670016 0.73728,384 C0.73728,172.329984 172.329984,0.73728 384,0.73728 Z" id="path-1"></path>
    </defs>
    <g id="icon/photon" stroke="none" stroke-width="1" fill="none" fill-rule="evenodd">
        <g id="photon/1024" transform="translate(128.000000, 128.000000)">
            <mask id="mask-2" fill="white">
                <use xlink:href="#path-1"></use>
            </mask>
            <use id="Mask" fill="#2E3148" fill-rule="evenodd" xlink:href="#path-1"></use>
            <path d="M384,96.956736 C542.5296,96.956736 671.043264,225.4704 671.043264,384 C671.043264,542.5296 542.5296,671.043264 384,671.043264 C225.4704,671.043264 96.956736,542.5296 96.956736,384 C96.956736,225.4704 225.4704,96.956736 384,96.956736 Z" id="15mm-Inset-Area" fill="#1B1E36" fill-rule="evenodd" mask="url(#mask-2)"></path>
            <path d="M383.825203,343.855093 C405.900038,343.855093 423.795232,361.750287 423.795232,383.825203 C423.795232,405.900038 405.900038,423.795232 383.825203,423.795232 C361.750369,423.795232 343.855093,405.900038 343.855093,383.825203 C343.855093,361.750287 361.750369,343.855093 383.825203,343.855093 Z" id="Nucleus" fill="#B7B9C8" fill-rule="evenodd" mask="url(#mask-2)"></path>
            <g id="main" stroke-width="1" fill-rule="evenodd" mask="url(#mask-2)">
                <g transform="translate(384.000000, 384.000000) rotate(45.000000) translate(-384.000000, -384.000000) translate(294.000000, 0.000000)">
                    <rect id="mask" fill="#1B1E36" x="36" y="0" width="36" height="768"></rect>
                    <rect id="mask" fill="#1B1E36" x="108" y="0" width="36" height="768"></rect>
                    <rect id="center" fill="#B7B9C8" x="72" y="0" width="36" height="768"></rect>
                    <rect id="right" fill="#B7B9C8" x="144" y="240" width="36" height="288"></rect>
                    <rect id="left" fill="#B7B9C8" x="0" y="240" width="36" height="288"></rect>
                </g>
            </g>
        </g>
    </g>
</svg>