<?xml version="1.0" encoding="UTF-8"?>
<svg width="1536px" height="1536px" viewBox="0 0 1536 1536" version="1.1" xmlns="http://www.w3.org/2000/svg" xmlns:xlink="http://www.w3.org/1999/xlink" style="background: #000000;">
    <!-- Generator: Sketch 47 (45396) - http://www.bohemiancoding.com/sketch -->
    <title>cosmos-wordmark/white</title>
    <desc>Created with Sketch.</desc>
    <defs></defs>
    <g id="Logos" stroke="none" stroke-width="1" fill="none" fill-rule="evenodd">
        <g id="cosmos-wordmark/white" fill="#FFFFFF">
            <g id="wordmark/white" transform="translate(192.000000, 624.000000)">
                <g id="text" transform="translate(0.000000, 41.625000)">
                    <path d="M128,150.527669 L112.201029,134.528245 C106.199848,140.126695 100.133907,144.562285 93.9978076,147.829621 C87.8671052,151.094259 80.5329286,152.726578 72.0006746,152.726578 C65.332996,152.726578 59.1672148,151.428817 53.5006324,148.827899 C47.8340501,146.226981 42.9338055,142.662859 38.7998988,138.127441 C34.6659921,133.594721 31.4684206,128.295755 29.1990893,122.230544 C26.9324564,116.165332 25.8018383,109.663037 25.8018383,102.73445 C25.8018383,95.8004677 26.9324564,89.3332472 29.1990893,83.3327889 C31.4684206,77.3350287 34.6659921,72.1035141 38.7998988,67.6355469 C42.9338055,63.1702779 47.8340501,59.6385333 53.5006324,57.0376153 C59.1672148,54.4393953 65.332996,53.1389362 72.0006746,53.1389362 C79.9986508,53.1389362 87.1331478,54.7388786 93.3987689,57.9387632 C99.6670883,61.1359498 105.60081,65.3368102 111.197234,70.5359483 L126.998904,52.3403141 C123.666414,49.1404294 120.134244,46.2076515 116.399696,43.5392823 C112.667847,40.8736111 108.6014,38.5721763 104.200354,36.6403741 C99.7993085,34.7058738 94.9665233,33.2084573 89.6993001,32.1427284 C84.4320769,31.0743015 78.5981955,30.5400881 72.2003542,30.5400881 C61.5336875,30.5400881 51.8006577,32.4422118 43.0012649,36.241063 C34.1991736,40.0399143 26.6005565,45.2390524 20.2000169,51.8384772 C13.7994772,58.4379021 8.83447171,66.1354324 5.29960368,74.9364642 C1.76473564,83.734798 0,93.1347965 0,103.133762 C0,113.264931 1.79981449,122.729683 5.39944346,131.530714 C8.99907243,140.32635 13.9667763,147.959127 20.2998566,154.426348 C26.632937,160.89087 34.1317143,165.990181 42.7988869,169.724279 C51.4660595,173.458377 60.9346488,175.322728 71.1992579,175.322728 C77.7347162,175.322728 83.7008179,174.756138 89.1002614,173.622958 C94.4997049,172.489778 99.4674087,170.825082 104.000675,168.626173 C108.53394,166.424566 112.767687,163.823648 116.701914,160.826117 C120.633443,157.825888 124.400371,154.391273 128,150.527669" id="Fill-3"></path>
                    <path d="M445.352808,70.1783714 C445.352808,65.5214401 447.341422,61.5643944 451.321335,58.3072344 C455.298565,55.0446906 460.869906,53.4161106 468.029992,53.4161106 C474.395706,53.4161106 480.694327,54.648986 486.925856,57.1093532 C493.160069,59.5697204 499.458691,63.1283696 505.821721,67.782609 L518.950335,49.2275643 C511.792932,43.5073452 504.13368,39.1519031 495.977944,36.1612379 C487.819525,33.1678809 478.63862,31.6712024 468.427178,31.6712024 C461.532777,31.6712024 455.167064,32.6348911 449.364925,34.5649603 C443.530582,36.4923377 438.560387,39.2515022 434.414085,42.8424538 C430.270467,46.4360973 427.020518,50.7242428 424.634718,55.7122738 C422.281121,60.7003048 421.086879,66.2536281 421.086879,72.3722436 C421.086879,78.8892556 422.114732,84.4102765 424.170439,88.9326144 C426.226146,93.4549523 429.242614,97.3123988 433.155435,100.504954 C437.065572,103.697509 441.939153,106.357075 447.706404,108.486342 C453.508543,110.61561 460.107738,112.540295 467.565714,114.271166 C474.065612,115.867444 479.333696,117.396425 483.412906,118.858109 C487.457227,120.322485 490.640084,121.88646 492.993681,123.547342 C495.312389,125.210917 496.906501,127.038695 497.767966,129.033369 C498.62943,131.030735 499.058821,133.289212 499.058821,135.816876 C499.058821,141.273292 496.839409,145.596432 492.397901,148.786295 C487.95371,151.981542 481.952978,153.575128 474.395706,153.575128 C465.644191,153.575128 457.81855,152.011153 450.924149,148.885894 C444.027065,145.760636 437.199756,141.273292 430.434173,135.418479 L415.716814,152.977533 C424.071143,160.557833 433.155435,166.178453 442.967007,169.836701 C452.781263,173.49495 463.057114,175.322728 473.797243,175.322728 C481.091513,175.322728 487.790005,174.391342 493.890033,172.531261 C499.955174,170.665797 505.193737,167.938934 509.503744,164.347983 C513.845955,160.757031 517.227405,156.369287 519.680298,151.182057 C522.100987,145.994828 523.327434,140.075411 523.327434,133.423805 C523.327434,127.571685 522.366672,122.484055 520.442466,118.160915 C518.51826,113.837775 515.668181,110.050317 511.956637,106.787774 C508.24241,103.530613 503.535217,100.768757 497.899467,98.5075882 C492.2664,96.2491111 485.766502,94.1871403 478.472232,92.3243678 C471.808628,90.7280902 466.339267,89.1964174 461.997056,87.7347332 C457.687049,86.273049 454.305599,84.6767714 451.817818,82.9459004 C449.364925,81.2177212 447.676884,79.3549487 446.745643,77.3602747 C445.81977,75.3629088 445.352808,72.9698383 445.352808,70.1783714" id="Fill-4"></path>
                    <polyline id="Fill-5" points="717.64329 72.1548807 717.64329 171.929385 741.946903 171.929385 741.946903 32.8023168 715.847801 32.8023168 673.414585 98.5901499 630.98137 32.8023168 604.884956 32.8023168 604.884956 171.929385 629.188568 171.929385 629.188568 72.5517584 672.815193 137.744275 673.613487 137.744275 717.64329 72.1548807"></polyline>
                    <path d="M946.142883,103.133762 C946.142883,109.932842 944.979365,116.364988 942.649635,122.432897 C940.322598,128.498109 937.095989,133.762 932.967115,138.227269 C928.843628,142.692538 923.885209,146.226981 918.097244,148.827899 C912.306585,151.428817 905.953021,152.726578 899.033858,152.726578 C892.112002,152.726578 885.723424,151.393742 879.868126,148.728071 C874.012828,146.059702 868.987075,142.460506 864.796255,137.930484 C860.605434,133.395065 857.343812,128.0961 855.014082,122.030888 C852.687046,115.965677 851.520834,109.530833 851.520834,102.73445 C851.520834,95.932672 852.687046,89.5005261 855.014082,83.4353147 C857.343812,77.3674053 860.570421,72.1035141 864.696601,67.6355469 C868.822782,63.1702779 873.781202,59.6385333 879.569166,57.0376153 C885.357131,54.4393953 891.713389,53.1389362 898.632552,53.1389362 C905.554409,53.1389362 911.942986,54.4717718 917.798284,57.1401411 C923.650889,59.8058123 928.676642,63.405008 932.867462,67.9377283 C937.060976,72.4677505 940.322598,77.7694144 942.649635,83.8346258 C944.979365,89.8998372 946.142883,96.3346811 946.142883,103.133762 Z M971.893805,102.73445 C971.893805,92.8676897 970.097355,83.5351425 966.504453,74.7341106 C962.914245,65.9384749 957.920812,58.2706231 951.534928,51.7386494 C945.146351,45.2039777 937.494602,40.0399143 928.574295,36.241063 C919.659375,32.4422118 909.812562,30.5400881 899.033858,30.5400881 C888.25246,30.5400881 878.405648,32.4745883 869.488034,36.3408908 C860.570421,40.2071933 852.851339,45.4387079 846.330788,52.0381327 C839.807544,58.6375576 834.754858,66.337786 831.159264,75.1361198 C827.566362,83.9344536 825.769912,93.2670008 825.769912,103.133762 C825.769912,112.997824 827.566362,122.327673 831.159264,131.128705 C834.754858,139.929737 839.742904,147.594891 846.131482,154.126864 C852.517366,160.658838 860.171808,165.8256 869.089422,169.624451 C878.004342,173.423302 887.851154,175.322728 898.632552,175.322728 C909.411256,175.322728 919.260762,173.388228 928.175682,169.524623 C937.095989,165.658321 944.812378,160.426806 951.335622,153.824683 C957.856172,147.227956 962.914245,139.527728 966.504453,130.729394 C970.097355,121.93106 971.893805,112.598513 971.893805,102.73445 L971.893805,102.73445 Z" id="Fill-6"></path>
                    <path d="M1074.02537,70.1783714 C1074.02537,65.5214401 1076.01399,61.5643944 1079.99122,58.3072344 C1083.97113,55.0446906 1089.53979,53.4161106 1096.70256,53.4161106 C1103.06559,53.4161106 1109.36689,54.648986 1115.59842,57.1093532 C1121.82995,59.5697204 1128.13126,63.1283696 1134.49697,67.782609 L1147.6229,49.2275643 C1140.46281,43.5073452 1132.80356,39.1519031 1124.64783,36.1612379 C1116.49478,33.1678809 1107.31119,31.6712024 1097.09974,31.6712024 C1090.20534,31.6712024 1083.83963,32.6348911 1078.03749,34.5649603 C1072.20315,36.4923377 1067.23295,39.2515022 1063.08665,42.8424538 C1058.94303,46.4360973 1055.69577,50.7242428 1053.3046,55.7122738 C1050.95369,60.7003048 1049.75945,66.2536281 1049.75945,72.3722436 C1049.75945,78.8892556 1050.7873,84.4102765 1052.84301,88.9326144 C1054.89871,93.4549523 1057.91518,97.3123988 1061.82532,100.504954 C1065.73814,103.697509 1070.61172,106.357075 1076.38165,108.486342 C1082.18111,110.61561 1088.7803,112.540295 1096.23828,114.271166 C1102.73549,115.867444 1108.00626,117.396425 1112.08547,118.858109 C1116.12711,120.322485 1119.31265,121.88646 1121.66625,123.547342 C1123.98496,125.210917 1125.57907,127.038695 1126.44053,129.033369 C1127.302,131.030735 1127.73407,133.289212 1127.73407,135.816876 C1127.73407,141.273292 1125.50929,145.596432 1121.07047,148.786295 C1116.62628,151.981542 1110.62554,153.575128 1103.06559,153.575128 C1094.31407,153.575128 1086.48843,152.011153 1079.59672,148.885894 C1072.70231,145.760636 1065.87232,141.273292 1059.10674,135.418479 L1044.38938,152.977533 C1052.74103,160.557833 1061.82532,166.178453 1071.63957,169.836701 C1081.45115,173.49495 1091.727,175.322728 1102.46981,175.322728 C1109.76408,175.322728 1116.45989,174.391342 1122.5626,172.531261 C1128.62774,170.665797 1133.8663,167.938934 1138.17631,164.347983 C1142.51852,160.757031 1145.89997,156.369287 1148.35286,151.182057 C1150.77087,145.994828 1152,140.075411 1152,133.423805 C1152,127.571685 1151.03656,122.484055 1149.11503,118.160915 C1147.19083,113.837775 1144.34075,110.050317 1140.62652,106.787774 C1136.91498,103.530613 1132.20778,100.768757 1126.57203,98.5075882 C1120.93628,96.2491111 1114.43638,94.1871403 1107.1448,92.3243678 C1100.48119,90.7280902 1095.01183,89.1964174 1090.66962,87.7347332 C1086.35962,86.273049 1082.97817,84.6767714 1080.49038,82.9459004 C1078.03749,81.2177212 1076.34677,79.3549487 1075.41821,77.3602747 C1074.49234,75.3629088 1074.02537,72.9698383 1074.02537,70.1783714" id="Fill-7"></path>
                    <path d="M294.720182,60.6541364 L228.126882,127.154357 C227.268221,125.490575 226.493004,123.756909 225.798539,121.958734 C223.472888,115.916436 222.310062,109.505901 222.310062,102.735195 C222.310062,95.959112 223.472888,89.5512657 225.798539,83.5089676 C228.126882,77.4639816 231.351569,72.2199765 235.475294,67.7688886 C239.599018,63.3204885 244.554485,59.8020863 250.339004,57.2109941 C256.126215,54.6225897 262.475997,53.3270436 269.391041,53.3270436 C276.308777,53.3270436 282.693551,54.654844 288.542671,57.3131326 C290.717586,58.2995754 292.776756,59.4123473 294.720182,60.6541364 Z M288.844144,148.65451 C283.056934,151.245602 276.707152,152.53846 269.792108,152.53846 C262.874372,152.53846 256.489598,151.21066 250.637786,148.555059 C248.465563,147.565928 246.406393,146.453156 244.465658,145.20868 L311.056267,78.7138342 C311.914928,80.3749286 312.690145,82.1059073 313.38461,83.9067701 C315.710261,89.9490682 316.873087,96.3596024 316.873087,103.132997 C316.873087,109.906392 315.710261,116.314238 313.38461,122.359224 C311.056267,128.401522 307.831579,133.645527 303.707855,138.093927 C299.584131,142.542327 294.631355,146.063417 288.844144,148.65451 Z M298.919275,169.273046 C307.831579,165.421349 315.546066,160.209598 322.062735,153.632417 C328.579403,147.060612 333.631773,139.389473 337.222535,130.624378 C340.81599,121.859283 342.611371,112.561992 342.611371,102.735195 C342.611371,92.9057087 340.81599,83.6084182 337.222535,74.8406351 C335.09338,69.6423235 332.471639,64.8418145 329.360004,60.4364201 L372.672566,17.186145 L355.461671,0 L312.017213,43.38198 C308.116902,40.7263792 303.882817,38.4309511 299.31765,36.4930076 C290.405346,32.7085077 280.564395,30.8135699 269.792108,30.8135699 C259.017129,30.8135699 249.176179,32.740762 240.263874,36.5924582 C231.351569,40.4441545 223.637083,45.6559053 217.120414,52.2303987 C210.603746,58.8048921 205.548684,66.4760303 201.957922,75.2411255 C198.367159,84.0062208 196.571778,93.3035113 196.571778,103.132997 C196.571778,112.959795 198.367159,122.254398 201.957922,131.022181 C204.089769,136.22318 206.71151,141.023689 209.823145,145.431771 L166.513274,188.676671 L183.72417,205.862816 L227.165936,162.483524 C231.066247,165.139124 235.300331,167.434553 239.865499,169.372496 C248.777803,173.156996 258.618754,175.049246 269.391041,175.049246 C280.16602,175.049246 290.00697,173.122054 298.919275,169.273046 L298.919275,169.273046 Z" id="Fill-8"></path>
                </g>
            </g>
        </g>
    </g>
</svg>