<?xml version="1.0" encoding="UTF-8"?>
<svg width="1440px" height="512px" viewBox="0 0 1440 512" version="1.1" xmlns="http://www.w3.org/2000/svg" xmlns:xlink="http://www.w3.org/1999/xlink" style="background: #1B1E36;">
    <!-- Generator: Sketch 49.1 (51147) - http://www.bohemiancoding.com/sketch -->
    <title>cosmos/logo-horizontal</title>
    <desc>Created with Sketch.</desc>
    <defs>
        <path d="M128.511679,16.423 C142.421011,16.423 153.696805,66.6016 153.696805,128.5 C153.696805,190.3984 142.421011,240.577 128.511679,240.577 C114.602296,240.577 103.326553,190.3984 103.326553,128.5 C103.326553,66.6016 114.602296,16.423 128.511679,16.423 Z" id="path-1"></path>
        <path d="M226.623554,72.287272 C233.513448,84.236748 195.564482,119.090919 141.862141,150.136252 C88.1598,181.181706 39.039993,196.662083 32.14989,184.712728 C25.259996,172.763373 63.208962,137.909081 116.911303,106.863748 C170.613644,75.818294 219.733451,60.337917 226.623554,72.287272 Z" id="path-2"></path>
        <path d="M226.623554,184.712728 C219.733451,196.662083 170.613644,181.181706 116.911303,150.136252 C63.208962,119.090919 25.259996,84.236748 32.14989,72.287272 C39.039993,60.337917 88.1598,75.818294 141.862141,106.863748 C195.564482,137.909081 233.513448,172.763373 226.623554,184.712728 Z" id="path-3"></path>
    </defs>
    <g id="cosmos/logo-horizontal" stroke="none" stroke-width="1" fill="none" fill-rule="evenodd">
        <g id="Group" transform="translate(112.000000, 128.000000)">
            <g id="wordmark/white" transform="translate(352.000000, 20.000000)" fill="#FFFFFF">
                <g id="text" transform="translate(0.000000, 31.218750)">
                    <path d="M96,112.895752 L84.1507716,100.896184 C79.6498862,105.095021 75.1004301,108.421714 70.4983557,110.872216 C65.9003289,113.320694 60.3996964,114.544933 54.0005059,114.544933 C48.999747,114.544933 44.3754111,113.571613 40.1254743,111.620924 C35.8755376,109.670235 32.2003542,106.997145 29.0999241,103.595581 C25.9994941,100.196041 23.6013155,96.2218163 21.899317,91.6729078 C20.1993423,87.1239992 19.3513787,82.2472779 19.3513787,77.0508378 C19.3513787,71.8503508 20.1993423,66.9999354 21.899317,62.4995917 C23.6013155,58.0012715 25.9994941,54.0776355 29.0999241,50.7266602 C32.2003542,47.3777084 35.8755376,44.7289 40.1254743,42.7782115 C44.3754111,40.8295465 48.999747,39.8542022 54.0005059,39.8542022 C59.9989881,39.8542022 65.3498609,41.0541589 70.0490767,43.4540724 C74.7503162,45.8519624 79.2006071,49.0026077 83.3979256,52.9019612 L95.2491778,39.2552356 C92.7498103,36.8553221 90.100683,34.6557386 87.2997723,32.6544617 C84.5008854,30.6552083 81.4510498,28.9291322 78.1502656,27.4802806 C74.8494814,26.0294054 71.2248925,24.906343 67.2744751,24.1070463 C63.3240577,23.3057261 58.9486466,22.9050661 54.1502656,22.9050661 C46.1502656,22.9050661 38.8504933,24.3316588 32.2509486,27.1807973 C25.6493802,30.0299357 19.9504174,33.9292893 15.1500126,38.8788579 C10.3496079,43.8284266 6.62585378,49.6015743 3.97470276,56.2023482 C1.32355173,62.8010985 0,69.8510974 0,77.3503211 C0,84.9486982 1.34986087,92.0472619 4.0495826,98.6480358 C6.74930433,105.244763 10.4750822,110.969345 15.2248925,115.819761 C19.9747028,120.668153 25.5987857,124.492635 32.0991652,127.293209 C38.5995446,130.093783 45.7009866,131.492046 53.3994435,131.492046 C58.3010372,131.492046 62.7756135,131.067103 66.8251961,130.217218 C70.8747786,129.367333 74.6005565,128.118812 78.0005059,126.46963 C81.4004554,124.818425 84.5757652,122.867736 87.5264356,120.619588 C90.4750822,118.369416 93.3002783,115.793455 96,112.895752" id="Fill-3"></path>
                    <path d="M334.014606,52.6337785 C334.014606,49.1410801 335.506067,46.1732958 338.491001,43.7304258 C341.473923,41.2835179 345.652429,40.0620829 351.022494,40.0620829 C355.796779,40.0620829 360.520745,40.9867395 365.194392,42.8320149 C369.870052,44.6772903 374.594018,47.3462772 379.366291,50.8369568 L389.212751,36.9206732 C383.844699,32.6305089 378.10026,29.3639273 371.983458,27.1209285 C365.864644,24.8759107 358.978965,23.7534018 351.320384,23.7534018 C346.149583,23.7534018 341.375298,24.4761683 337.023694,25.9237202 C332.647936,27.3692533 328.92029,29.4386266 325.810564,32.1318404 C322.702851,34.827073 320.265389,38.0431821 318.476038,41.7842054 C316.710841,45.5252286 315.815159,49.6902211 315.815159,54.2791827 C315.815159,59.1669417 316.586049,63.3077073 318.127829,66.6994608 C319.669609,70.0912142 321.931961,72.9842991 324.866576,75.3787155 C327.799179,77.773132 331.454365,79.767806 335.779803,81.3647566 C340.131407,82.9617072 345.080803,84.4052213 350.674285,85.7033745 C355.549209,86.9005827 359.500272,88.0473184 362.559679,89.1435816 C365.59292,90.2418636 367.980063,91.414845 369.74526,92.6605069 C371.484292,93.9081876 372.679876,95.2790213 373.325974,96.7750268 C373.972073,98.2730512 374.294116,99.966909 374.294116,101.862657 C374.294116,105.954969 372.629557,109.197324 369.298426,111.589721 C365.965282,113.986157 361.464734,115.181346 355.796779,115.181346 C349.233143,115.181346 343.363912,114.008364 338.193112,111.664421 C333.020298,109.320477 327.899817,105.954969 322.825629,101.56386 L311.787611,114.73315 C318.053357,120.418375 324.866576,124.63384 332.225255,127.377526 C339.585947,130.121212 347.292835,131.492046 355.347932,131.492046 C360.818635,131.492046 365.842504,130.793506 370.417525,129.398446 C374.96638,127.999347 378.895303,125.954201 382.127808,123.260987 C385.384466,120.567773 387.920554,117.276965 389.760224,113.386543 C391.57574,109.496121 392.495575,105.056558 392.495575,100.067854 C392.495575,95.6787636 391.775004,91.863041 390.33185,88.6206862 C388.888695,85.3783315 386.751136,82.537738 383.967478,80.0908301 C381.181807,77.6479601 377.651412,75.5765678 373.4246,73.8806911 C369.1998,72.1868333 364.324877,70.6403552 358.854174,69.2432759 C353.856471,68.0460676 349.75445,66.8973131 346.497792,65.8010499 C343.265287,64.7047867 340.729199,63.5075785 338.863364,62.2094253 C337.023694,60.9132909 335.757663,59.5162115 335.059232,58.020206 C334.364827,56.5221816 334.014606,54.7273787 334.014606,52.6337785" id="Fill-4"></path>
                    <polyline id="Fill-5" points="538.232467 54.1161605 538.232467 128.947039 556.460177 128.947039 556.460177 24.6017376 536.885851 24.6017376 505.060939 73.9426124 473.236027 24.6017376 453.663717 24.6017376 453.663717 128.947039 471.891426 128.947039 471.891426 54.4138188 504.611395 103.308206 505.210115 103.308206 538.232467 54.1161605"></polyline>
                    <path d="M709.607162,77.3503211 C709.607162,82.4496314 708.734523,87.2737409 706.987226,91.8246729 C705.241948,96.3735815 702.821992,100.3215 699.725337,103.670452 C696.632721,107.019404 692.913906,109.670235 688.572933,111.620924 C684.229939,113.571613 679.464766,114.544933 674.275394,114.544933 C669.084001,114.544933 664.292568,113.545307 659.901095,111.546053 C655.509621,109.544776 651.740306,106.845379 648.597191,103.447863 C645.454076,100.046299 643.007859,96.0720747 641.260562,91.5231661 C639.515284,86.9742576 638.640625,82.1481246 638.640625,77.0508378 C638.640625,71.949504 639.515284,67.1253946 641.260562,62.576486 C643.007859,58.025554 645.427816,54.0776355 648.522451,50.7266602 C651.617087,47.3777084 655.335901,44.7289 659.676875,42.7782115 C664.017849,40.8295465 668.785042,39.8542022 673.974414,39.8542022 C679.165806,39.8542022 683.957239,40.8538289 688.348713,42.8551058 C692.738167,44.8543592 696.507481,47.553756 699.650597,50.9532962 C702.795732,54.3508129 705.241948,58.3270608 706.987226,62.8759693 C708.734523,67.4248779 709.607162,72.2510108 709.607162,77.3503211 Z M728.920354,77.0508378 C728.920354,69.6507673 727.573016,62.6513569 724.87834,56.050583 C722.185684,49.4538562 718.440609,43.7029673 713.651196,38.8039871 C708.859763,33.9029833 703.120952,30.0299357 696.430721,27.1807973 C689.744531,24.3316588 682.359422,22.9050661 674.275394,22.9050661 C666.189345,22.9050661 658.804236,24.3559412 652.116026,27.2556681 C645.427816,30.1553949 639.638504,34.0790309 634.748091,39.0285996 C629.855658,43.9781682 626.066144,49.7533395 623.369448,56.3520898 C620.674772,62.9508402 619.327434,69.9502506 619.327434,77.3503211 C619.327434,84.7483681 620.674772,91.7457551 623.369448,98.3465289 C626.066144,104.947303 629.807178,110.696168 634.598611,115.595148 C639.388024,120.494129 645.128856,124.3692 651.817066,127.218338 C658.503257,130.067477 665.888366,131.492046 673.974414,131.492046 C682.058442,131.492046 689.445571,130.041171 696.131762,127.143467 C702.821992,124.243741 708.609284,120.320105 713.501716,115.368512 C718.392129,110.420967 722.185684,104.645796 724.87834,98.0470456 C727.573016,91.4482953 728.920354,84.4488848 728.920354,77.0508378 Z" id="Fill-6"></path>
                    <path d="M805.519031,52.6337785 C805.519031,49.1410801 807.010492,46.1732958 809.993413,43.7304258 C812.978348,41.2835179 817.154841,40.0620829 822.526919,40.0620829 C827.299191,40.0620829 832.02517,40.9867395 836.698817,42.8320149 C841.372464,44.6772903 846.098443,47.3462772 850.872728,50.8369568 L860.717176,36.9206732 C855.347111,32.6305089 849.602672,29.3639273 843.48587,27.1209285 C837.371082,24.8759107 830.48339,23.7534018 822.824808,23.7534018 C817.654008,23.7534018 812.879723,24.4761683 808.528118,25.9237202 C804.152361,27.3692533 800.424715,29.4386266 797.314989,32.1318404 C794.207275,34.827073 791.771826,38.0431821 789.97845,41.7842054 C788.215266,45.5252286 787.319584,49.6902211 787.319584,54.2791827 C787.319584,59.1669417 788.090474,63.3077073 789.632254,66.6994608 C791.174034,70.0912142 793.436385,72.9842991 796.368988,75.3787155 C799.303604,77.773132 802.95879,79.767806 807.286241,81.3647566 C811.635832,82.9617072 816.585228,84.4052213 822.17871,85.7033745 C827.051621,86.9005827 831.004697,88.0473184 834.064104,89.1435816 C837.095332,90.2418636 839.484488,91.414845 841.249685,92.6605069 C842.988717,93.9081876 844.184301,95.2790213 844.830399,96.7750268 C845.476498,98.2730512 845.800553,99.966909 845.800553,101.862657 C845.800553,105.954969 844.131969,109.197324 840.802851,111.589721 C837.469707,113.986157 832.969158,115.181346 827.299191,115.181346 C820.735555,115.181346 814.866324,114.008364 809.697537,111.664421 C804.526736,109.320477 799.404242,105.954969 794.330054,101.56386 L783.292035,114.73315 C789.555769,120.418375 796.368988,124.63384 803.72968,127.377526 C811.088359,130.121212 818.795247,131.492046 826.852357,131.492046 C832.32306,131.492046 837.344916,130.793506 841.92195,129.398446 C846.470805,127.999347 850.399728,125.954201 853.632233,123.260987 C856.888891,120.567773 859.424979,117.276965 861.264649,113.386543 C863.078152,109.496121 864,105.056558 864,100.067854 C864,95.6787636 863.277416,91.863041 861.836275,88.6206862 C860.39312,85.3783315 858.255561,82.537738 855.46989,80.0908301 C852.686232,77.6479601 849.155837,75.5765678 844.929025,73.8806911 C840.702212,72.1868333 835.827289,70.6403552 830.358598,69.2432759 C825.360896,68.0460676 821.258875,66.8973131 818.002217,65.8010499 C814.769712,64.7047867 812.233624,63.5075785 810.367788,62.2094253 C808.528118,60.9132909 807.260075,59.5162115 806.563657,58.020206 C805.869252,56.5221816 805.519031,54.7273787 805.519031,52.6337785" id="Fill-7"></path>
                    <path d="M221.040137,45.4906023 L171.095161,95.365768 C170.451166,94.1179313 169.869753,92.8176815 169.348904,91.4690502 C167.604666,86.9373267 166.732546,82.129426 166.732546,77.0513959 C166.732546,71.969334 167.604666,67.1634492 169.348904,62.6317257 C171.095161,58.0979862 173.513677,54.1649824 176.60647,50.8266664 C179.699263,47.4903664 183.415864,44.8515647 187.754253,42.9082456 C192.094661,40.9669423 196.856998,39.9952827 202.043281,39.9952827 C207.231582,39.9952827 212.020163,40.991133 216.407003,42.9848494 C218.038189,43.7246815 219.582567,44.5592605 221.040137,45.4906023 Z M216.633108,111.490882 C212.2927,113.434201 207.530364,114.403845 202.344081,114.403845 C197.155779,114.403845 192.367199,113.407995 187.97834,111.416294 C186.349172,110.674446 184.804795,109.839867 183.349244,108.90651 L233.2922,59.0353757 C233.936196,60.2811965 234.517609,61.5794304 235.038458,62.9300776 C236.782696,67.4618012 237.654815,72.2697018 237.654815,77.3497478 C237.654815,82.4297938 236.782696,87.2356786 235.038458,91.769418 C233.2922,96.3011416 230.873685,100.234145 227.780891,103.570445 C224.688098,106.906746 220.973516,109.547563 216.633108,111.490882 Z M224.189456,126.954784 C230.873685,124.066012 236.65955,120.157199 241.547051,115.224313 C246.434552,110.295459 250.22383,104.542105 252.916902,97.9682837 C255.611992,91.3944622 256.958528,84.4214944 256.958528,77.0513959 C256.958528,69.6792815 255.611992,62.7063137 252.916902,56.1304764 C251.320035,52.2317427 249.353729,48.6313609 247.020003,45.3273151 L279.504425,12.8896087 L266.596253,0 L234.01291,32.536485 C231.087677,30.5447844 227.912113,28.8232133 224.488238,27.3697557 C217.804009,24.5313808 210.423297,23.1101775 202.344081,23.1101775 C194.262847,23.1101775 186.882134,24.5555715 180.197906,27.4443437 C173.513677,30.3331159 167.727812,34.241929 162.840311,39.172799 C157.952809,44.1036691 154.161513,49.8570227 151.468441,56.4308442 C148.77537,63.0046656 147.428834,69.9776334 147.428834,77.3497478 C147.428834,84.7198463 148.77537,91.6907983 151.468441,98.2666356 C153.067327,102.167385 155.033632,105.767767 157.367359,109.073829 L124.884956,141.507503 L137.793128,154.397112 L170.374452,121.862643 C173.299685,123.854343 176.475249,125.575915 179.899124,127.029372 C186.583353,129.867747 193.964065,131.286934 202.043281,131.286934 C210.124515,131.286934 217.505228,129.84154 224.189456,126.954784 Z" id="Fill-8"></path>
                </g>
            </g>
            <g id="brandmark/256">
                <path d="M128,0.24576 C198.556672,0.24576 255.75424,57.443328 255.75424,128 C255.75424,198.556672 198.556672,255.75424 128,255.75424 C57.443328,255.75424 0.24576,198.556672 0.24576,128 C0.24576,57.443328 57.443328,0.24576 128,0.24576 Z" id="Inner-Border" fill="#2E3148" fill-rule="evenodd"></path>
                <path d="M128,54.245828 C168.7333,54.245828 201.754172,87.2667 201.754172,128 C201.754172,168.7333 168.7333,201.754172 128,201.754172 C87.2667,201.754172 54.245828,168.7333 54.245828,128 C54.245828,87.2667 87.2667,54.245828 128,54.245828 Z" id="15mm-Inset-Area" fill="#1B1E36" fill-rule="evenodd"></path>
                <g id="Ellipse-1">
                    <use fill-opacity="0" fill="#000000" fill-rule="evenodd" xlink:href="#path-1"></use>
                    <path stroke="#6F7390" stroke-width="5" d="M128.511679,18.923 C123.511143,18.923 117.565352,30.1144331 113.142272,49.7977131 C108.493315,70.4861746 105.826553,98.5439629 105.826553,128.5 C105.826553,158.456037 108.493315,186.513825 113.142272,207.202287 C117.565352,226.885567 123.511143,238.077 128.511679,238.077 C133.512192,238.077 139.457983,226.885558 143.881067,207.202286 C148.530034,186.513808 151.196805,158.456016 151.196805,128.5 C151.196805,98.5439839 148.530034,70.4861923 143.881067,49.7977138 C139.457983,30.1144423 133.512192,18.923 128.511679,18.923 Z"></path>
                </g>
                <g id="Ellipse-1-copy">
                    <use fill-opacity="0" fill="#000000" fill-rule="evenodd" xlink:href="#path-2"></use>
                    <path stroke="#6F7390" stroke-width="5" d="M224.457774,73.5360295 L224.457795,73.5360674 C221.993147,69.2616817 209.333173,69.7670392 190.073472,75.8368467 C169.819411,82.2200328 144.153843,94.0024613 118.16252,109.028108 C92.1711708,124.053712 69.1476553,140.418535 53.4996028,154.790479 C38.6181596,168.458332 31.849329,179.186519 34.3156485,183.463933 C36.7802968,187.738318 49.4402709,187.232961 68.6999718,181.163153 C88.9540334,174.779967 114.619601,162.997539 140.610924,147.971892 C166.602309,132.946267 189.625815,116.581471 205.273842,102.209565 C220.155299,88.541715 226.92412,77.8135324 224.457774,73.5360295 Z"></path>
                </g>
                <g id="Ellipse-1-copy-2">
                    <use fill-opacity="0" fill="#000000" fill-rule="evenodd" xlink:href="#path-3"></use>
                    <path stroke="#6F7390" stroke-width="5" d="M224.457795,183.463933 L224.457779,183.463961 C226.924115,179.186519 220.155284,168.458332 205.273841,154.790479 C189.625789,140.418535 166.602273,124.053712 140.61092,109.028106 C114.619601,94.0024613 88.9540334,82.2200328 68.6999718,75.8368467 C49.4402709,69.7670392 36.7802968,69.2616817 34.3156704,73.5360295 C31.8493244,77.8135324 38.6181449,88.541715 53.4996018,102.209565 C69.1476292,116.581471 92.1711351,132.946267 118.162524,147.971894 C144.153843,162.997539 169.819411,174.779967 190.073472,181.163153 C209.333173,187.232961 221.993147,187.738318 224.457795,183.463933 Z"></path>
                </g>
                <path d="M57.5119,97.380613 C61.998302,97.380613 65.635265,101.019344 65.635265,105.507939 C65.635265,109.996534 61.998302,113.635265 57.5119,113.635265 C53.025498,113.635265 49.388535,109.996534 49.388535,105.507939 C49.388535,101.019344 53.025498,97.380613 57.5119,97.380613 Z" id="Dot-copy" fill="#B7B9C8" fill-rule="evenodd"></path>
                <path d="M182.468295,70.459901 C186.95689,70.459901 190.595621,74.098615 190.595621,78.587227 C190.595621,83.075822 186.95689,86.714553 182.468295,86.714553 C177.979683,86.714553 174.340969,83.075822 174.340969,78.587227 C174.340969,74.098615 177.979683,70.459901 182.468295,70.459901 Z" id="Dot-copy-2" fill="#B7B9C8" fill-rule="evenodd"></path>
                <path d="M113.381068,193.396457 C117.869663,193.396457 121.508394,197.033403 121.508394,201.519822 C121.508394,206.006224 117.869663,209.643187 113.381068,209.643187 C108.892473,209.643187 105.253742,206.006224 105.253742,201.519822 C105.253742,197.033403 108.892473,193.396457 113.381068,193.396457 Z" id="Dot-copy-3" fill="#B7B9C8" fill-rule="evenodd"></path>
                <path d="M129.003052,115.37674 C136.52864,115.37674 142.629336,121.477436 142.629336,129.003052 C142.629336,136.52864 136.52864,142.629336 129.003052,142.629336 C121.477464,142.629336 115.37674,136.52864 115.37674,129.003052 C115.37674,121.477436 121.477464,115.37674 129.003052,115.37674 Z" id="Nucleus" fill="#B7B9C8" fill-rule="evenodd"></path>
            </g>
        </g>
    </g>
</svg>