<?xml version="1.0" encoding="UTF-8"?>
<svg width="1024px" height="1024px" viewBox="0 0 1024 1024" version="1.1" xmlns="http://www.w3.org/2000/svg" xmlns:xlink="http://www.w3.org/1999/xlink" style="background: #FFFFFF;">
    <!-- Generator: Sketch 49.1 (51147) - http://www.bohemiancoding.com/sketch -->
    <title>cosmos/logo-vertical-white</title>
    <desc>Created with Sketch.</desc>
    <defs>
        <path d="M288,0.55296 C446.752512,0.55296 575.44704,129.247488 575.44704,288 C575.44704,446.752512 446.752512,575.44704 288,575.44704 C129.247488,575.44704 0.55296,446.752512 0.55296,288 C0.55296,129.247488 129.247488,0.55296 288,0.55296 Z" id="path-1"></path>
        <path d="M288.855125,36.3279773 C319.761262,36.3279773 344.815753,149.00542 344.815753,288 C344.815753,426.99458 319.761262,539.672023 288.855125,539.672023 C257.948875,539.672023 232.894497,426.99458 232.894497,288 C232.894497,149.00542 257.948875,36.3279773 288.855125,36.3279773 Z" id="path-2"></path>
        <path d="M506.941186,162.165382 C522.394331,188.9148 437.279689,266.937366 316.832256,336.433684 C196.384823,405.930273 86.2154235,440.583765 70.7618101,413.834618 C55.3086654,387.085471 140.423308,309.062634 260.870741,239.566316 C381.318173,170.069727 491.487573,135.416235 506.941186,162.165382 Z" id="path-3"></path>
        <path d="M506.941186,413.834618 C491.487573,440.583765 381.318173,405.930273 260.870741,336.433684 C140.423308,266.937366 55.3086654,188.9148 70.7618101,162.165382 C86.2154235,135.416235 196.384823,170.069727 316.832256,239.566316 C437.279689,309.062634 522.394331,387.085471 506.941186,413.834618 Z" id="path-4"></path>
    </defs>
    <g id="cosmos/logo-vertical-white" stroke="none" stroke-width="1" fill="none" fill-rule="evenodd">
        <g id="brandmark/1024" transform="translate(224.000000, 112.000000)">
            <g id="Inner-Border">
                <use fill="#FFFFFF" fill-rule="evenodd" xlink:href="#path-1"></use>
                <path stroke="#B8B8B8" stroke-width="5.625" d="M288,3.36546 C130.800789,3.36546 3.36546,130.800789 3.36546,288 C3.36546,445.199211 130.800789,572.63454 288,572.63454 C445.199211,572.63454 572.63454,445.199211 572.63454,288 C572.63454,130.800789 445.199211,3.36546 288,3.36546 Z"></path>
            </g>
            <path d="M287.447217,122.165024 C379.035335,122.165024 453.282193,196.411882 453.282193,288 C453.282193,379.588118 379.035335,453.834976 287.447217,453.834976 C195.859099,453.834976 121.612241,379.588118 121.612241,288 C121.612241,196.411882 195.859099,122.165024 287.447217,122.165024 Z" id="15mm-Inset-Area" fill="#DDDDDD" fill-rule="evenodd"></path>
            <g id="Ellipse-1">
                <use fill-opacity="0" fill="#000000" fill-rule="evenodd" xlink:href="#path-2"></use>
                <path stroke="#000000" stroke-width="11.25" d="M288.855125,41.9529773 C277.812496,41.9529773 264.59769,67.0901743 254.775865,111.261951 C244.44528,157.721777 238.519497,220.729662 238.519497,288 C238.519497,355.270338 244.44528,418.278223 254.775865,464.738049 C264.59769,508.909826 277.812496,534.047023 288.855125,534.047023 C299.897702,534.047023 313.112509,508.909805 322.934343,464.738047 C333.264951,418.278184 339.190753,355.27029 339.190753,288 C339.190753,220.72971 333.264951,157.721816 322.934343,111.261953 C313.112509,67.0901951 299.897702,41.9529773 288.855125,41.9529773 Z"></path>
            </g>
            <g id="Ellipse-1-copy">
                <use fill-opacity="0" fill="#000000" fill-rule="evenodd" xlink:href="#path-3"></use>
                <path stroke="#000000" stroke-width="11.25" d="M502.070557,164.979204 C496.549746,155.423203 468.155595,156.554463 424.96645,170.13951 C379.540027,184.428287 321.976289,210.803385 263.681904,244.43848 C205.387662,278.073362 153.749927,314.705984 118.654533,346.877127 C85.2894273,377.462154 70.1138223,401.468158 75.6324154,411.020755 C81.1531683,420.5768 109.547339,419.445556 152.736547,405.86049 C198.162969,391.571713 255.726708,365.196615 314.021092,331.56152 C372.315415,297.926591 423.953128,261.294029 459.048466,229.122973 C492.413553,198.537995 507.58914,174.532027 502.070556,164.979202 Z"></path>
            </g>
            <g id="Ellipse-1-copy-2">
                <use fill-opacity="0" fill="#000000" fill-rule="evenodd" xlink:href="#path-4"></use>
                <path stroke="#000000" stroke-width="11.25" d="M502.070581,411.020755 L502.070544,411.020819 C507.589174,401.468158 492.413569,377.462154 459.048463,346.877127 C423.95307,314.705984 372.315335,278.073362 314.021084,244.438475 C255.726708,210.803385 198.162969,184.428287 152.736547,170.13951 C109.547339,156.554444 81.1531683,155.4232 75.6324647,164.97916 C70.1138119,174.531957 85.2893945,198.53795 118.654531,229.122973 C153.749868,261.294029 205.387581,297.926591 263.681913,331.561525 C321.976289,365.196615 379.540027,391.571713 424.96645,405.86049 C468.155658,419.445556 496.549828,420.5768 502.070581,411.020755 Z"></path>
            </g>
            <path d="M127.995215,217.520188 C137.769362,217.520188 145.692907,225.447585 145.692907,235.226509 C145.692907,245.005433 137.769362,252.93283 127.995215,252.93283 C118.221069,252.93283 110.297524,245.005433 110.297524,235.226509 C110.297524,225.447585 118.221069,217.520188 127.995215,217.520188 Z" id="Dot-copy" fill="#000000" fill-rule="evenodd"></path>
            <path d="M409.26682,156.886784 C419.045743,156.886784 426.97314,164.814144 426.97314,174.593105 C426.97314,184.372029 419.045743,192.299426 409.26682,192.299426 C399.487859,192.299426 391.560499,184.372029 391.560499,174.593105 C391.560499,164.814144 399.487859,156.886784 409.26682,156.886784 Z" id="Dot-copy-2" fill="#000000" fill-rule="evenodd"></path>
            <path d="M253.191949,434.798468 C262.970872,434.798468 270.898269,442.721976 270.898269,452.49616 C270.898269,462.270306 262.970872,470.193851 253.191949,470.193851 C243.413025,470.193851 235.485628,462.270306 235.485628,452.49616 C235.485628,442.721976 243.413025,434.798468 253.191949,434.798468 Z" id="Dot-copy-3" fill="#000000" fill-rule="evenodd"></path>
            <path d="M287.868902,257.89132 C304.425028,257.89132 317.846424,271.312715 317.846424,287.868902 C317.846424,304.425028 304.425028,317.846424 287.868902,317.846424 C271.312776,317.846424 257.89132,304.425028 257.89132,287.868902 C257.89132,271.312715 271.312776,257.89132 287.868902,257.89132 Z" id="Nucleus" fill="#000000" fill-rule="evenodd"></path>
        </g>
        <g id="wordmark/black" transform="translate(224.000000, 764.000000)" fill="#000000">
            <g id="text" transform="translate(0.000000, 20.812500)">
                <path d="M64,75.2638344 L56.1005144,67.2641227 C53.0999241,70.0633473 50.0669534,72.2811426 46.9989038,73.9148105 C43.9335526,75.5471294 40.2664643,76.3632888 36.0003373,76.3632888 C32.666498,76.3632888 29.5836074,75.7144084 26.7503162,74.4139493 C23.917025,73.1134903 21.4669028,71.3314297 19.3999494,69.0637206 C17.332996,66.7973605 15.7342103,64.1478775 14.5995446,61.1152718 C13.4662282,58.0826661 12.9009191,54.8315186 12.9009191,51.3672252 C12.9009191,47.9002338 13.4662282,44.6666236 14.5995446,41.6663944 C15.7342103,38.6675143 17.332996,36.051757 19.3999494,33.8177735 C21.4669028,31.5851389 23.917025,29.8192667 26.7503162,28.5188076 C29.5836074,27.2196976 32.666498,26.5694681 36.0003373,26.5694681 C39.9993254,26.5694681 43.5665739,27.3694393 46.6993844,28.9693816 C49.8335441,30.5679749 52.8004048,32.6684051 55.5986171,35.2679741 L63.4994519,26.170157 C61.8332068,24.5702147 60.067122,23.1038258 58.1998482,21.7696411 C56.3339236,20.4368055 54.3006999,19.2860881 52.1001771,18.320187 C49.8996543,17.3529369 47.4832617,16.6042287 44.8496501,16.0713642 C42.2160385,15.5371508 39.2990977,15.270044 36.1001771,15.270044 C30.7668437,15.270044 25.9003289,16.2211059 21.5006324,18.1205315 C17.0995868,20.0199571 13.3002783,22.6195262 10.1000084,25.9192386 C6.8997386,29.218951 4.41723585,33.0677162 2.64980184,37.4682321 C0.882367822,41.867399 0,46.5673982 0,51.5668808 C0,56.6324655 0.899907243,61.3648413 2.69972173,65.7653572 C4.49953622,70.1631751 6.98338814,73.9795636 10.1499283,77.2131739 C13.3164685,80.4454351 17.0658572,82.9950903 21.3994435,84.8621393 C25.7330298,86.7291884 30.4673244,87.6613639 35.599629,87.6613639 C38.8673581,87.6613639 41.850409,87.3780689 44.5501307,86.8114789 C47.2498524,86.2448888 49.7337044,85.4125411 52.0003373,84.3130866 C54.2669702,83.2122831 56.3838435,81.9118241 58.3509571,80.4130586 C60.3167215,78.912944 62.2001855,77.1956366 64,75.2638344" id="Fill-3"></path>
                <path d="M222.676404,35.0891857 C222.676404,32.76072 223.670711,30.7821972 225.660668,29.1536172 C227.649282,27.5223453 230.434953,26.7080553 234.014996,26.7080553 C237.197853,26.7080553 240.347164,27.324493 243.462928,28.5546766 C246.580035,29.7848602 249.729345,31.5641848 252.91086,33.8913045 L259.475167,24.6137821 C255.896466,21.7536726 252.06684,19.5759515 247.988972,18.080619 C243.909763,16.5839405 239.31931,15.8356012 234.213589,15.8356012 C230.766389,15.8356012 227.583532,16.3174456 224.682462,17.2824802 C221.765291,18.2461688 219.280194,19.6257511 217.207043,21.4212269 C215.135234,23.2180487 213.510259,25.3621214 212.317359,27.8561369 C211.14056,30.3501524 210.543439,33.1268141 210.543439,36.1861218 C210.543439,39.4446278 211.057366,42.2051382 212.08522,44.4663072 C213.113073,46.7274761 214.621307,48.6561994 216.577717,50.252477 C218.532786,51.8487546 220.969577,53.1785373 223.853202,54.2431711 C226.754272,55.3078048 230.053869,56.2701475 233.782857,57.135583 C237.032806,57.9337218 239.666848,58.6982123 241.706453,59.4290544 C243.728614,60.1612424 245.320042,60.94323 246.49684,61.7736712 C247.656195,62.6054584 248.453251,63.5193475 248.883983,64.5166845 C249.314715,65.5153675 249.52941,66.644606 249.52941,67.908438 C249.52941,70.636646 248.419704,72.7982158 246.198951,74.3931475 C243.976855,75.990771 240.976489,76.7875639 237.197853,76.7875639 C232.822096,76.7875639 228.909275,76.0055763 225.462075,74.4429471 C222.013532,72.8803178 218.599878,70.636646 215.217086,67.7092397 L207.858407,76.4887666 C212.035571,80.2789165 216.577717,83.0892264 221.483503,84.9183506 C226.390631,86.7474748 231.528557,87.6613639 236.898621,87.6613639 C240.545757,87.6613639 243.895002,87.1956708 246.945017,86.2656305 C249.977587,85.3328983 252.596869,83.9694672 254.751872,82.1739914 C256.922978,80.3785156 258.613703,78.1846433 259.840149,75.5910287 C261.050494,72.997414 261.663717,70.0377054 261.663717,66.7119027 C261.663717,63.7858424 261.183336,61.2420273 260.221233,59.0804575 C259.25913,56.9188876 257.834091,55.0251586 255.978319,53.3938868 C254.121205,51.7653067 251.767608,50.3843786 248.949733,49.2537941 C246.1332,48.1245555 242.883251,47.0935702 239.236116,46.1621839 C235.904314,45.3640451 233.169634,44.5982087 230.998528,43.8673666 C228.843525,43.1365245 227.1528,42.3383857 225.908909,41.4729502 C224.682462,40.6088606 223.838442,39.6774744 223.372822,38.6801373 C222.909885,37.6814544 222.676404,36.4849191 222.676404,35.0891857" id="Fill-4"></path>
                <polyline id="Fill-5" points="358.821645 36.0774404 358.821645 85.9646923 370.973451 85.9646923 370.973451 16.4011584 357.9239 16.4011584 336.707293 49.295075 315.490685 16.4011584 302.442478 16.4011584 302.442478 85.9646923 314.594284 85.9646923 314.594284 36.2758792 336.407596 68.8721375 336.806743 68.8721375 358.821645 36.0774404"></polyline>
                <path d="M473.071441,51.5668808 C473.071441,54.966421 472.489682,58.1824939 471.324817,61.2164486 C470.161299,64.2490543 468.547995,66.8809999 466.483558,69.1136345 C464.421814,71.346269 461.942604,73.1134903 459.048622,74.4139493 C456.153293,75.7144084 452.976511,76.3632888 449.516929,76.3632888 C446.056001,76.3632888 442.861712,75.696871 439.934063,74.3640354 C437.006414,73.0298508 434.493538,71.230253 432.398127,68.9652418 C430.302717,66.6975327 428.671906,64.0480498 427.507041,61.0154441 C426.343523,57.9828384 425.760417,54.7654164 425.760417,51.3672252 C425.760417,47.966336 426.343523,44.7502631 427.507041,41.7176574 C428.671906,38.6837026 430.28521,36.051757 432.348301,33.8177735 C434.411391,31.5851389 436.890601,29.8192667 439.784583,28.5188076 C442.678566,27.2196976 445.856694,26.5694681 449.316276,26.5694681 C452.777204,26.5694681 455.971493,27.2358859 458.899142,28.5700705 C461.825444,29.9029061 464.338321,31.702504 466.433731,33.9688641 C468.530488,36.2338753 470.161299,38.8847072 471.324817,41.9173129 C472.489682,44.9499186 473.071441,48.1673406 473.071441,51.5668808 Z M485.946903,51.3672252 C485.946903,46.4338449 485.048677,41.7675712 483.252227,37.3670553 C481.457123,32.9692374 478.960406,29.1353116 475.767464,25.8693247 C472.573175,22.6019889 468.747301,20.0199571 464.287148,18.1205315 C459.829687,16.2211059 454.906281,15.270044 449.516929,15.270044 C444.12623,15.270044 439.202824,16.2372942 434.744017,18.1704454 C430.28521,20.1035966 426.425669,22.7193539 423.165394,26.0190664 C419.903772,29.3187788 417.377429,33.168893 415.579632,37.5680599 C413.783181,41.9672268 412.884956,46.6335004 412.884956,51.5668808 C412.884956,56.4989121 413.783181,61.1638367 415.579632,65.5643526 C417.377429,69.9648685 419.871452,73.7974454 423.065741,77.0634322 C426.258683,80.3294191 430.085904,82.9127998 434.544711,84.8122255 C439.002171,86.7116511 443.925577,87.6613639 449.316276,87.6613639 C454.705628,87.6613639 459.630381,86.6941138 464.087841,84.7623116 C468.547995,82.8291603 472.406189,80.213403 475.667811,76.9123416 C478.928086,73.6139782 481.457123,69.763864 483.252227,65.3646971 C485.048677,60.9655302 485.946903,56.2992566 485.946903,51.3672252 Z" id="Fill-6"></path>
                <path d="M537.012687,35.0891857 C537.012687,32.76072 538.006994,30.7821972 539.995609,29.1536172 C541.985565,27.5223453 544.769894,26.7080553 548.351279,26.7080553 C551.532794,26.7080553 554.683447,27.324493 557.799211,28.5546766 C560.914976,29.7848602 564.065629,31.5641848 567.248485,33.8913045 L573.81145,24.6137821 C570.231407,21.7536726 566.401781,19.5759515 562.323913,18.080619 C558.247388,16.5839405 553.655593,15.8356012 548.549872,15.8356012 C545.102672,15.8356012 541.919815,16.3174456 539.018746,17.2824802 C536.101574,18.2461688 533.616477,19.6257511 531.543326,21.4212269 C529.471517,23.2180487 527.847884,25.3621214 526.6523,27.8561369 C525.476844,30.3501524 524.879723,33.1268141 524.879723,36.1861218 C524.879723,39.4446278 525.393649,42.2051382 526.421503,44.4663072 C527.449356,46.7274761 528.95759,48.6561994 530.912659,50.252477 C532.869069,51.8487546 535.30586,53.1785373 538.190827,54.2431711 C541.090555,55.3078048 544.390152,56.2701475 548.11914,57.135583 C551.367747,57.9337218 554.003131,58.6982123 556.042736,59.4290544 C558.063555,60.1612424 559.656325,60.94323 560.833123,61.7736712 C561.992478,62.6054584 562.789534,63.5193475 563.220266,64.5166845 C563.650998,65.5153675 563.867035,66.644606 563.867035,67.908438 C563.867035,70.636646 562.754646,72.7982158 560.535234,74.3931475 C558.313138,75.990771 555.312772,76.7875639 551.532794,76.7875639 C547.157037,76.7875639 543.244216,76.0055763 539.798358,74.4429471 C536.351157,72.8803178 532.936161,70.636646 529.553369,67.7092397 L522.19469,76.4887666 C526.370513,80.2789165 530.912659,83.0892264 535.819787,84.9183506 C540.725573,86.7474748 545.863498,87.6613639 551.234905,87.6613639 C554.88204,87.6613639 558.229944,87.1956708 561.2813,86.2656305 C564.31387,85.3328983 566.933152,83.9694672 569.088155,82.1739914 C571.259261,80.3785156 572.949986,78.1846433 574.176432,75.5910287 C575.385435,72.997414 576,70.0377054 576,66.7119027 C576,63.7858424 575.518278,61.2420273 574.557516,59.0804575 C573.595413,56.9188876 572.170374,55.0251586 570.31326,53.3938868 C568.457488,51.7653067 566.103891,50.3843786 563.286017,49.2537941 C560.468142,48.1245555 557.218192,47.0935702 553.572399,46.1621839 C550.240597,45.3640451 547.505917,44.5982087 545.334811,43.8673666 C543.179808,43.1365245 541.489083,42.3383857 540.245192,41.4729502 C539.018746,40.6088606 538.173383,39.6774744 537.709105,38.6801373 C537.246168,37.6814544 537.012687,36.4849191 537.012687,35.0891857" id="Fill-7"></path>
                <path d="M147.360091,30.3270682 L114.063441,63.5771787 C113.634111,62.7452876 113.246502,61.8784543 112.899269,60.9793668 C111.736444,57.9582178 111.155031,54.7529507 111.155031,51.3675973 C111.155031,47.979556 111.736444,44.7756328 112.899269,41.7544838 C114.063441,38.7319908 115.675785,36.1099882 117.737647,33.8844443 C119.799509,31.6602443 122.277243,29.9010432 125.169502,28.605497 C128.063108,27.3112948 131.237998,26.6635218 134.69552,26.6635218 C138.154388,26.6635218 141.346775,27.327422 144.271336,28.6565663 C145.358793,29.1497877 146.388378,29.7061737 147.360091,30.3270682 Z M144.422072,74.3272548 C141.528467,75.622801 138.353576,76.2692301 134.896054,76.2692301 C131.437186,76.2692301 128.244799,75.6053299 125.318893,74.2775295 C124.232782,73.7829642 123.203196,73.2265782 122.232829,72.6043398 L155.528134,39.3569171 C155.957464,40.1874643 156.345072,41.0529536 156.692305,41.9533851 C157.855131,44.9745341 158.436544,48.1798012 158.436544,51.5664985 C158.436544,54.9531959 157.855131,58.157119 156.692305,61.179612 C155.528134,64.200761 153.91579,66.8227636 151.853928,69.0469636 C149.792066,71.2711637 147.315678,73.0317087 144.422072,74.3272548 Z M149.459637,84.6365228 C153.91579,82.7106746 157.773033,80.1047992 161.031367,76.8162086 C164.289702,73.5303058 166.815886,69.6947367 168.611268,65.3121891 C170.407995,60.9296415 171.305685,56.2809962 171.305685,51.3675973 C171.305685,46.4528544 170.407995,41.8042091 168.611268,37.4203176 C167.54669,34.8211618 166.23582,32.4209072 164.680002,30.21821 L186.336283,8.59307249 L177.730835,0 L156.008607,21.69099 C154.058451,20.3631896 151.941409,19.2154755 149.658825,18.2465038 C145.202673,16.3542539 140.282198,15.406785 134.896054,15.406785 C129.508565,15.406785 124.588089,16.370381 120.131937,18.2962291 C115.675785,20.2220772 111.818541,22.8279527 108.560207,26.1151994 C105.301873,29.402446 102.774342,33.2380152 100.978961,37.6205628 C99.1835797,42.0031104 98.2858891,46.6517556 98.2858891,51.5664985 C98.2858891,56.4798975 99.1835797,61.1271988 100.978961,65.5110904 C102.044884,68.1115901 103.355755,70.5118446 104.911573,72.7158857 L83.2566372,94.3383354 L91.8620851,102.931408 L113.582968,81.2417619 C115.533123,82.5695622 117.650166,83.7172763 119.932749,84.6862481 C124.388902,86.578498 129.309377,87.524623 134.69552,87.524623 C140.08301,87.524623 145.003485,86.561027 149.459637,84.6365228 Z" id="Fill-8"></path>
            </g>
        </g>
    </g>
</svg>