<?xml version="1.0" encoding="UTF-8"?>
<svg width="1440px" height="512px" viewBox="0 0 1440 512" version="1.1" xmlns="http://www.w3.org/2000/svg" xmlns:xlink="http://www.w3.org/1999/xlink" style="background: #1B1E36;">
    <!-- Generator: Sketch 49.1 (51147) - http://www.bohemiancoding.com/sketch -->
    <title>cosmos/logo-horizontal</title>
    <desc>Created with Sketch.</desc>
    <defs>
        <path d="M128.380056,16.1457677 C142.116116,16.1457677 153.251446,66.2246312 153.251446,128 C153.251446,189.775369 142.116116,239.854232 128.380056,239.854232 C114.643944,239.854232 103.508665,189.775369 103.508665,128 C103.508665,66.2246312 114.643944,16.1457677 128.380056,16.1457677 Z" id="path-1"></path>
        <path d="M225.307194,72.073503 C232.175258,83.9621331 194.346528,118.638829 140.814336,149.526082 C87.2821436,180.413455 38.317966,195.815007 31.4496934,183.926497 C24.5816291,172.037987 62.4103589,137.361171 115.942551,106.473918 C169.474744,75.5865453 218.438921,60.1849932 225.307194,72.073503 Z" id="path-2"></path>
        <path d="M225.307194,183.926497 C218.438921,195.815007 169.474744,180.413455 115.942551,149.526082 C62.4103589,118.638829 24.5816291,83.9621331 31.4496934,72.073503 C38.317966,60.1849932 87.2821436,75.5865453 140.814336,106.473918 C194.346528,137.361171 232.175258,172.037987 225.307194,183.926497 Z" id="path-3"></path>
    </defs>
    <g id="cosmos/logo-horizontal" stroke="none" stroke-width="1" fill="none" fill-rule="evenodd">
        <g id="logo" transform="translate(112.000000, 128.000000)">
            <g id="wordmark/white" transform="translate(320.000000, 16.000000)" fill="#FFFFFF">
                <g id="text" transform="translate(0.000000, 32.375000)">
                    <path d="M99.5555556,117.077076 L87.2674668,104.63308 C82.5998819,108.987429 77.8819275,112.437333 73.1094059,114.978594 C68.3410818,117.517757 62.6367222,118.787338 56.0005247,118.787338 C50.8145525,118.787338 46.0189448,117.777969 41.611603,115.755032 C37.2042612,113.732096 33.3929599,110.960002 30.1776991,107.432454 C26.9624383,103.907005 24.4754383,99.7855873 22.7104028,95.0682006 C20.9474661,90.350814 20.0680964,85.2934733 20.0680964,79.9045726 C20.0680964,74.5114749 20.9474661,69.4814145 22.7104028,64.8143914 C24.4754383,60.1494668 26.9624383,56.0805109 30.1776991,52.6054254 C33.3929599,49.1324383 37.2042612,46.3855259 41.611603,44.3625897 C46.0189448,42.3417519 50.8145525,41.3302837 56.0005247,41.3302837 C62.2211729,41.3302837 67.7702261,42.5746833 72.6434869,45.0634825 C77.5188464,47.5501832 82.133963,50.8175191 86.4867377,54.8612931 L98.7769252,40.7091332 C96.1849884,38.220334 93.4377454,35.9392845 90.5330972,33.8638862 C87.6305478,31.7905864 84.4677554,30.0005816 81.0447199,28.4980687 C77.6216844,26.9934574 73.8628515,25.8288001 69.7661223,24.9998999 C65.6693931,24.1689012 61.1319298,23.7534018 56.155831,23.7534018 C47.8595347,23.7534018 40.2894005,25.2328314 33.4454282,28.1874935 C26.5993573,31.1421556 20.6893218,35.1859296 15.7111242,40.3188156 C10.7329267,45.4517016 6.87125577,51.4386696 4.12191397,58.2839166 C1.37257217,65.1270651 0,72.438175 0,80.2151479 C0,88.0949463 1.39985571,95.4564197 4.19956714,102.301667 C6.99927856,109.142717 10.8630482,115.079321 15.7887774,120.109382 C20.7145066,125.137344 26.5468889,129.103474 33.2880232,132.007772 C40.0291574,134.912071 47.3936157,136.362122 55.3772006,136.362122 C60.4603349,136.362122 65.1006362,135.92144 69.3002033,135.040078 C73.4997705,134.158716 77.3635401,132.863953 80.8894136,131.15369 C84.415287,129.441329 87.708201,127.418393 90.7681555,125.08698 C93.8260112,122.753468 96.7558441,120.082101 99.5555556,117.077076" id="Fill-3"></path>
                    <path d="M346.385517,54.5831777 C346.385517,50.9611201 347.932217,47.8834179 351.027705,45.3500712 C354.121106,42.8125371 358.454371,41.5458638 364.023327,41.5458638 C368.974438,41.5458638 373.873366,42.5047669 378.720111,44.4183858 C383.568943,46.3320047 388.467871,49.099843 393.416894,52.719807 L403.628038,38.2881055 C398.061169,33.8390463 392.103973,30.4514802 385.760623,28.1254073 C379.415186,25.7972407 372.274482,24.6331575 364.33225,24.6331575 C358.969938,24.6331575 354.018827,25.3826931 349.506053,26.883858 C344.96823,28.3829293 341.102523,30.5289461 337.877622,33.3219085 C334.654808,36.1169646 332.12707,39.4521888 330.271447,43.3317685 C328.440872,47.2113482 327.512017,51.5305997 327.512017,56.2895228 C327.512017,61.3583099 328.311458,65.6524372 329.910341,69.1698112 C331.509225,72.6871851 333.855366,75.6874213 336.898671,78.1705198 C339.939889,80.6536183 343.730453,82.7221692 348.216092,84.3782661 C352.728867,86.034363 357.861574,87.5313406 363.662222,88.8775736 C368.717698,90.1191228 372.815097,91.3083302 375.987815,92.4451957 C379.133399,93.5841549 381.608954,94.80058 383.439529,96.0923775 C385.242969,97.3862686 386.482834,98.8078739 387.152862,100.359287 C387.82289,101.912794 388.156861,103.669387 388.156861,105.635348 C388.156861,109.879227 386.430651,113.241669 382.976145,115.722674 C379.519552,118.207866 374.852316,119.447322 368.974438,119.447322 C362.167704,119.447322 356.081094,118.230896 350.718783,115.80014 C345.354384,113.369383 340.044255,109.879227 334.782134,105.325484 L323.3353,118.982526 C329.833111,124.878314 336.898671,129.249908 344.529894,132.095212 C352.163204,134.940516 360.155533,136.362122 368.508967,136.362122 C374.182288,136.362122 379.392226,135.63771 384.136692,134.190981 C388.854024,132.740064 392.928462,130.619171 396.28069,127.826209 C399.657965,125.033246 402.287982,121.620556 404.195788,117.586045 C406.078546,113.551533 407.032448,108.947542 407.032448,103.774071 C407.032448,99.2224215 406.28519,95.2653759 404.788585,91.9029339 C403.29198,88.5404919 401.075252,85.5946912 398.188496,83.0571572 C395.299652,80.5238105 391.638502,78.3757 387.255141,76.617013 C382.873867,74.8604197 377.818391,73.2566647 372.145069,71.8078416 C366.962266,70.5662924 362.708319,69.3749913 359.331043,68.2381258 C355.978816,67.1012603 353.348799,65.8597111 351.413858,64.5134781 C349.506053,63.1693387 348.193132,61.7205157 347.468834,60.1691025 C346.74871,58.6155957 346.385517,56.7543187 346.385517,54.5831777" id="Fill-4"></path>
                    <polyline id="Fill-5" points="558.167003 56.1204628 558.167003 133.722855 577.069813 133.722855 577.069813 25.5129131 556.770512 25.5129131 523.7669 76.6812277 490.763288 25.5129131 470.466077 25.5129131 470.466077 133.722855 489.368887 133.722855 489.368887 56.4291454 523.300706 107.134436 523.921601 107.134436 558.167003 56.1204628"></polyline>
                    <path d="M735.888909,80.2151479 C735.888909,85.5033215 734.98395,90.5061016 733.171938,95.2255868 C731.362021,99.9429734 728.852436,104.037111 725.64109,107.510098 C722.433933,110.983085 718.577384,113.732096 714.075634,115.755032 C709.571789,117.777969 704.630128,118.787338 699.248556,118.787338 C693.86489,118.787338 688.895997,117.750688 684.341876,115.677388 C679.787755,113.60199 675.878836,110.802616 672.619309,107.279265 C669.359782,103.751718 666.822965,99.6302996 665.010953,94.912913 C663.201035,90.1955264 662.293982,85.1906477 662.293982,79.9045726 C662.293982,74.6143005 663.201035,69.6115203 665.010953,64.8941337 C666.822965,60.1746485 669.33255,56.0805109 672.541801,52.6054254 C675.751053,49.1324383 679.607601,46.3855259 684.109352,44.3625897 C688.611102,42.3417519 693.554858,41.3302837 698.936429,41.3302837 C704.320096,41.3302837 709.288989,42.3669337 713.84311,44.442332 C718.395136,46.5156318 722.304055,49.3150062 725.563582,52.8404553 C728.825204,56.3638059 731.362021,60.4873223 733.171938,65.2047089 C734.98395,69.9220956 735.888909,74.9269742 735.888909,80.2151479 Z M755.917404,79.9045726 C755.917404,72.2304254 754.520165,64.9717775 751.725686,58.1265305 C748.933302,51.2854805 745.049521,45.3215958 740.082722,40.2411718 C735.113829,35.1586493 729.162468,31.1421556 722.224452,28.1874935 C715.290625,25.2328314 707.631993,23.7534018 699.248556,23.7534018 C690.863025,23.7534018 683.204393,25.2580131 676.268471,28.2651373 C669.33255,31.2722614 663.328819,35.3412172 658.25728,40.4741032 C653.183646,45.6069893 649.253779,51.5960557 646.457205,58.4392043 C643.662726,65.2823528 642.265487,72.5410006 642.265487,80.2151479 C642.265487,87.8871966 643.662726,95.143746 646.457205,101.988993 C649.253779,108.83424 653.13337,114.796026 658.102264,119.87645 C663.069062,124.956874 669.022517,128.975466 675.958439,131.930128 C682.892266,134.884791 690.550898,136.362122 698.936429,136.362122 C707.319866,136.362122 714.980593,134.85751 721.91442,131.852485 C728.852436,128.845361 734.854072,124.776405 739.927706,119.64142 C744.999245,114.510633 748.933302,108.521566 751.725686,101.678418 C754.520165,94.8352692 755.917404,87.5766213 755.917404,79.9045726 Z" id="Fill-6"></path>
                    <path d="M835.353069,54.5831777 C835.353069,50.9611201 836.899769,47.8834179 839.99317,45.3500712 C843.088657,42.8125371 847.419836,41.5458638 852.990879,41.5458638 C857.939902,41.5458638 862.840917,42.5047669 867.687662,44.4183858 C872.534407,46.3320047 877.435422,49.099843 882.386533,52.719807 L892.59559,38.2881055 C887.026634,33.8390463 881.069437,30.4514802 874.726088,28.1254073 C868.384825,25.7972407 861.242034,24.6331575 853.299801,24.6331575 C847.93749,24.6331575 842.986379,25.3826931 838.473604,26.883858 C833.935782,28.3829293 830.070075,30.5289461 826.845174,33.3219085 C823.62236,36.1169646 821.096709,39.4521888 819.236911,43.3317685 C817.408424,47.2113482 816.479568,51.5305997 816.479568,56.2895228 C816.479568,61.3583099 817.27901,65.6524372 818.877893,69.1698112 C820.476776,72.6871851 822.822918,75.6874213 825.864136,78.1705198 C828.907441,80.6536183 832.698004,82.7221692 837.185731,84.3782661 C841.696418,86.034363 846.829125,87.5313406 852.629773,88.8775736 C857.683162,90.1191228 861.782649,91.3083302 864.955367,92.4451957 C868.098863,93.5841549 870.576506,94.80058 872.407081,96.0923775 C874.210521,97.3862686 875.450386,98.8078739 876.120414,100.359287 C876.790442,101.912794 877.1265,103.669387 877.1265,105.635348 C877.1265,109.879227 875.396116,113.241669 871.943697,115.722674 C868.487104,118.207866 863.819868,119.447322 857.939902,119.447322 C851.133169,119.447322 845.046559,118.230896 839.686334,115.80014 C834.324023,113.369383 829.011806,109.879227 823.749686,105.325484 L812.302852,118.982526 C818.798575,124.878314 825.864136,129.249908 833.497446,132.095212 C841.128669,134.940516 849.120997,136.362122 857.476518,136.362122 C863.14984,136.362122 868.35769,135.63771 873.104244,134.190981 C877.821575,132.740064 881.896014,130.619171 885.248242,127.826209 C888.625517,125.033246 891.255533,121.620556 893.163339,117.586045 C895.04401,113.551533 896,108.947542 896,103.774071 C896,99.2224215 895.250654,95.2653759 893.756137,91.9029339 C892.259532,88.5404919 890.042804,85.5946912 887.15396,83.0571572 C884.267204,80.5238105 880.606053,78.3757 876.222692,76.617013 C871.839331,74.8604197 866.783855,73.2566647 861.112621,71.8078416 C855.929818,70.5662924 851.67587,69.3749913 848.298595,68.2381258 C844.946368,67.1012603 842.316351,65.8597111 840.38141,64.5134781 C838.473604,63.1693387 837.158596,61.7205157 836.436385,60.1691025 C835.716262,58.6155957 835.353069,56.7543187 835.353069,54.5831777" id="Fill-7"></path>
                    <path d="M229.226808,47.1754394 L177.432019,98.8978335 C176.764172,97.6037806 176.161225,96.2553734 175.621086,94.8567928 C173.812246,90.1572276 172.907826,85.1712566 172.907826,79.9051513 C172.907826,74.6348649 173.812246,69.6509844 175.621086,64.9514192 C177.432019,60.2497635 179.94011,56.1710928 183.147451,52.7091356 C186.354792,49.2492689 190.209044,46.5127338 194.708115,44.4974398 C199.209279,42.4842364 204.147998,41.4765894 209.526365,41.4765894 C214.906826,41.4765894 219.872762,42.5093231 224.422078,44.5768809 C226.113678,45.3441142 227.715255,46.2096035 229.226808,47.1754394 Z M224.656557,115.620174 C220.155393,117.635468 215.216674,118.641025 209.838306,118.641025 C204.457845,118.641025 199.49191,117.608291 194.9405,115.542824 C193.250994,114.7735 191.649417,113.908011 190.139957,112.940084 L241.932652,61.2218711 C242.600499,62.5138334 243.203446,63.8601501 243.743586,65.2608212 C245.552426,69.9603864 246.456845,74.9463574 246.456845,80.2145533 C246.456845,85.4827491 245.552426,90.4666296 243.743586,95.1682853 C241.932652,99.8678505 239.424562,103.946521 236.217221,107.406388 C233.00988,110.866255 229.157721,113.60488 224.656557,115.620174 Z M232.492769,131.656813 C239.424562,128.661049 245.424718,124.607465 250.493238,119.49188 C255.561758,114.380476 259.491379,108.414035 262.284194,101.596739 C265.079103,94.7794423 266.475511,87.5482164 266.475511,79.9051513 C266.475511,72.2599957 265.079103,65.0287697 262.284194,58.2093829 C260.628185,54.1662516 258.589053,50.4325224 256.168892,47.0061045 L289.856441,13.3670017 L276.470188,0 L242.680055,33.74154 C239.64648,31.6760727 236.353302,29.8907397 232.802617,28.3834503 C225.870824,25.4399505 218.216752,23.9661099 209.838306,23.9661099 C201.457767,23.9661099 193.803695,25.4650371 186.871902,28.4608008 C179.94011,31.4565646 173.939953,35.5101486 168.871433,40.6236435 C163.802913,45.7371383 159.871199,51.7035791 157.078384,58.5208754 C154.285568,65.3381717 152.889161,72.5693977 152.889161,80.2145533 C152.889161,87.8576183 154.285568,95.0867537 157.078384,101.906141 C158.736487,105.951362 160.775619,109.685092 163.19578,113.1136 L129.510324,146.748522 L142.896577,160.115523 L176.684617,126.376074 C179.718192,128.441541 183.011369,130.226874 186.562055,131.734164 C193.493847,134.677664 201.147919,136.149414 209.526365,136.149414 C217.906904,136.149414 225.560977,134.650486 232.492769,131.656813 Z" id="Fill-8"></path>
                </g>
            </g>
            <g id="brandmark/1024">
                <path d="M128,0.24576 C198.556672,0.24576 255.75424,57.443328 255.75424,128 C255.75424,198.556672 198.556672,255.75424 128,255.75424 C57.443328,255.75424 0.24576,198.556672 0.24576,128 C0.24576,57.443328 57.443328,0.24576 128,0.24576 Z" id="Inner-Border" fill="#2E3148" fill-rule="evenodd"></path>
                <path d="M127.754319,54.2955662 C168.460149,54.2955662 201.458752,87.2941697 201.458752,128 C201.458752,168.70583 168.460149,201.704434 127.754319,201.704434 C87.0484883,201.704434 54.0498849,168.70583 54.0498849,128 C54.0498849,87.2941697 87.0484883,54.2955662 127.754319,54.2955662 Z" id="15mm-Inset-Area" fill="#1B1E36" fill-rule="evenodd"></path>
                <g id="Ellipse-1">
                    <use fill-opacity="0" fill="#000000" fill-rule="evenodd" xlink:href="#path-1"></use>
                    <path stroke="#6F7390" stroke-width="5" d="M128.380056,18.6457677 C123.47222,18.6457677 117.598973,29.8178552 113.233718,49.449756 C108.642347,70.0985674 106.008665,98.1020721 106.008665,128 C106.008665,157.897928 108.642347,185.901433 113.233718,206.550244 C117.598973,226.182145 123.47222,237.354232 128.380056,237.354232 C133.287868,237.354232 139.161115,226.182136 143.526375,206.550243 C148.117756,185.901415 150.751446,157.897907 150.751446,128 C150.751446,98.1020931 148.117756,70.098585 143.526375,49.4497567 C139.161115,29.8178645 133.287868,18.6457677 128.380056,18.6457677 Z"></path>
                </g>
                <g id="Ellipse-1-copy">
                    <use fill-opacity="0" fill="#000000" fill-rule="evenodd" xlink:href="#path-2"></use>
                    <path stroke="#6F7390" stroke-width="5" d="M223.142459,73.3240711 L223.14248,73.324109 C220.688813,69.0769778 208.069181,69.5797528 188.873978,75.6175601 C168.684457,81.9681276 143.100573,93.6903933 117.191957,108.639324 C91.2834052,123.588161 68.3333008,139.869326 52.7353481,154.167612 C37.9064122,167.760958 31.1616988,178.430292 33.6144068,182.675891 C36.0680748,186.923022 48.6877061,186.420247 67.8829097,180.38244 C88.0724308,174.031872 113.656315,162.309607 139.56493,147.360676 C165.473518,132.411818 188.423613,116.13068 204.02154,101.832432 C218.85049,88.2390888 225.595193,77.5697586 223.142459,73.3240711 Z"></path>
                </g>
                <g id="Ellipse-1-copy-2">
                    <use fill-opacity="0" fill="#000000" fill-rule="evenodd" xlink:href="#path-3"></use>
                    <path stroke="#6F7390" stroke-width="5" d="M223.14248,182.675891 L223.142464,182.675919 C225.595189,178.430292 218.850475,167.760958 204.021539,154.167612 C188.423587,139.869326 165.473482,123.588161 139.564926,108.639322 C113.656315,93.6903933 88.0724308,81.9681276 67.8829097,75.6175601 C48.6877061,69.5797528 36.0680748,69.0769778 33.6144288,73.3240711 C31.1616942,77.5697586 37.9063975,88.2390888 52.7353471,101.832432 C68.3332748,116.13068 91.2833695,132.411818 117.191961,147.360678 C143.100573,162.309607 168.684457,174.031872 188.873978,180.38244 C208.069181,186.420247 220.688813,186.923022 223.14248,182.675891 Z"></path>
                </g>
                <path d="M56.8867624,96.6756393 C61.2308274,96.6756393 64.7524029,100.198927 64.7524029,104.545115 C64.7524029,108.891304 61.2308274,112.414591 56.8867624,112.414591 C52.5426974,112.414591 49.0211218,108.891304 49.0211218,104.545115 C49.0211218,100.198927 52.5426974,96.6756393 56.8867624,96.6756393 Z" id="Dot-copy" fill="#B7B9C8" fill-rule="evenodd"></path>
                <path d="M181.896364,69.7274597 C186.242553,69.7274597 189.76584,73.2507307 189.76584,77.5969356 C189.76584,81.943124 186.242553,85.4664115 181.896364,85.4664115 C177.550159,85.4664115 174.026888,81.943124 174.026888,77.5969356 C174.026888,73.2507307 177.550159,69.7274597 181.896364,69.7274597 Z" id="Dot-copy-2" fill="#B7B9C8" fill-rule="evenodd"></path>
                <path d="M112.529755,193.243764 C116.875943,193.243764 120.399231,196.765323 120.399231,201.109404 C120.399231,205.453469 116.875943,208.975045 112.529755,208.975045 C108.183566,208.975045 104.660279,205.453469 104.660279,201.109404 C104.660279,196.765323 108.183566,193.243764 112.529755,193.243764 Z" id="Dot-copy-3" fill="#B7B9C8" fill-rule="evenodd"></path>
                <path d="M127.941734,114.618364 C135.300013,114.618364 141.265077,120.583429 141.265077,127.941734 C141.265077,135.300013 135.300013,141.265077 127.941734,141.265077 C120.583456,141.265077 114.618364,135.300013 114.618364,127.941734 C114.618364,120.583429 120.583456,114.618364 127.941734,114.618364 Z" id="Nucleus" fill="#B7B9C8" fill-rule="evenodd"></path>
            </g>
        </g>
    </g>
</svg>