<?xml version="1.0" encoding="UTF-8"?>
<svg width="1536px" height="1536px" viewBox="0 0 1536 1536" version="1.1" xmlns="http://www.w3.org/2000/svg" xmlns:xlink="http://www.w3.org/1999/xlink" style="background: #000000;">
    <!-- Generator: Sketch 47 (45396) - http://www.bohemiancoding.com/sketch -->
    <title>cosmos-logo-hz/white</title>
    <desc>Created with Sketch.</desc>
    <defs>
        <path d="M128,0.24576 C198.556672,0.24576 255.75424,57.443328 255.75424,128 C255.75424,198.556672 198.556672,255.75424 128,255.75424 C57.443328,255.75424 0.24576,198.556672 0.24576,128 C0.24576,57.443328 57.443328,0.24576 128,0.24576 Z" id="path-1"></path>
        <path d="M128.01145,16.423 C141.64805,16.423 152.70275,66.6016 152.70275,128.5 C152.70275,190.3984 141.64805,240.577 128.01145,240.577 C114.3748,240.577 103.32015,190.3984 103.32015,128.5 C103.32015,66.6016 114.3748,16.423 128.01145,16.423 Z" id="path-2"></path>
        <path d="M224.658848,72.25184 C231.515776,84.10256 193.748384,118.66868 140.302992,149.45744 C86.8576,180.24632 37.972816,195.59876 31.11568,183.74816 C24.258752,171.89756 62.026144,137.33132 115.471536,106.54256 C168.916928,75.75368 217.801712,60.40124 224.658848,72.25184 Z" id="path-3"></path>
        <path d="M224.658848,183.74816 C217.801712,195.59876 168.916928,180.24632 115.471536,149.45744 C62.026144,118.66868 24.258752,84.10256 31.11568,72.25184 C37.972816,60.40124 86.8576,75.75368 140.302992,106.54256 C193.748384,137.33132 231.515776,171.89756 224.658848,183.74816 Z" id="path-4"></path>
    </defs>
    <g id="Logos" stroke="none" stroke-width="1" fill="none" fill-rule="evenodd">
        <g id="cosmos-logo-hz/white">
            <g id="wordmark/white" transform="translate(448.000000, 648.000000)" fill="#FFFFFF">
                <g id="text" transform="translate(0.000000, 34.687500)">
                    <path d="M106.666667,125.439724 L93.5008573,112.106871 C88.4998735,116.772245 83.4449223,120.468571 78.3315063,123.191351 C73.2225876,125.911882 67.1107738,127.272148 60.0005622,127.272148 C54.4441634,127.272148 49.3060123,126.190681 44.5838604,124.023249 C39.8617084,121.855817 35.7781713,118.885716 32.333249,115.106201 C28.8883267,111.328934 26.2236838,106.913129 24.3325744,101.858786 C22.4437136,96.8044436 21.5015319,91.3858643 21.5015319,85.612042 C21.5015319,79.8337231 22.4437136,74.4443726 24.3325744,69.4439907 C26.2236838,64.4458572 28.8883267,60.0862617 32.333249,56.3629558 C35.7781713,52.6418982 39.8617084,49.6987778 44.5838604,47.5313461 C49.3060123,45.3661627 54.4441634,44.2824469 60.0005622,44.2824469 C66.6655423,44.2824469 72.6109565,45.6157321 77.8323074,48.2823027 C83.0559069,50.9466249 88.0006746,54.4473419 92.6643618,58.7799569 L105.83242,43.6169284 C103.055345,40.9503579 100.11187,38.5063763 96.999747,36.2827352 C93.8898727,34.0613425 90.5011665,32.1434802 86.8336285,30.5336451 C83.1660905,28.9215615 79.1387694,27.6737144 74.7494168,26.785607 C70.3600641,25.8952513 65.4984962,25.4500734 60.1669618,25.4500734 C51.2780729,25.4500734 43.1672148,27.0351765 35.8343874,30.2008859 C28.4993114,33.3665952 22.1671304,37.6992103 16.8333474,43.198731 C11.4995643,48.6982517 7.36205976,55.1128603 4.4163364,62.4470535 C1.47061304,69.7789983 0,77.6123304 0,85.9448013 C0,94.3874424 1.49984541,102.274735 4.49953622,109.608929 C7.49922703,116.938625 11.6389802,123.299273 16.9165472,128.688623 C22.1941142,134.075725 28.4430953,138.32515 35.6657391,141.436899 C42.8883829,144.548647 50.778874,146.102273 59.332715,146.102273 C64.7789302,146.102273 69.7506816,145.630115 74.2502178,144.685798 C78.7497541,143.741481 82.8895073,142.354235 86.6672288,140.521811 C90.4449504,138.687139 93.9730725,136.519707 97.2515951,134.021764 C100.527869,131.521573 103.666976,128.659394 106.666667,125.439724" id="Fill-3"></path>
                    <path d="M371.12734,58.4819762 C371.12734,54.6012001 372.784519,51.303662 376.101113,48.589362 C379.41547,45.8705755 384.058255,44.5134255 390.024993,44.5134255 C395.329755,44.5134255 400.578606,45.5408217 405.771547,47.5911277 C410.966724,49.6414336 416.215576,52.6069747 421.518101,56.4855075 L432.458612,41.0229702 C426.49411,36.256121 420.1114,32.6265859 413.314954,30.134365 C406.516271,27.6399008 398.865517,26.3926687 390.355982,26.3926687 C384.610648,26.3926687 379.305886,27.1957426 374.470771,28.8041336 C369.608818,30.4102814 365.466989,32.7095852 362.011738,35.7020449 C358.558723,38.6967478 355.850432,42.2702023 353.862265,46.4268948 C351.900934,50.5835874 350.905732,55.2113568 350.905732,60.310203 C350.905732,65.7410463 351.762277,70.3418971 353.475366,74.110512 C355.188455,77.8791269 357.702178,81.0936657 360.962862,83.7541284 C364.22131,86.4145911 368.282628,88.6308956 373.08867,90.4052851 C377.923786,92.1796746 383.423115,93.7835792 389.638095,95.2259717 C395.054677,96.556203 399.444747,97.8303538 402.844088,99.048424 C406.214356,100.268737 408.866737,101.57205 410.828067,102.956119 C412.760324,104.342431 414.088751,105.865579 414.806638,107.527808 C415.524525,109.192279 415.882351,111.074343 415.882351,113.18073 C415.882351,117.727743 414.032841,121.33036 410.331584,123.988579 C406.628092,126.651285 401.627482,127.979273 395.329755,127.979273 C388.036826,127.979273 381.515458,126.675961 375.770124,124.071578 C370.022554,121.467196 364.33313,117.727743 358.695144,112.848733 L346.430678,127.481278 C353.392619,133.798194 360.962862,138.482044 369.139172,141.530584 C377.317719,144.579125 385.880928,146.102273 394.831036,146.102273 C400.909595,146.102273 406.491671,145.326118 411.575028,143.776051 C416.629311,142.221497 420.994781,139.949112 424.586453,136.956652 C428.204963,133.964193 431.022838,130.307739 433.066915,125.985048 C435.084156,121.662357 436.106195,116.729509 436.106195,111.186505 C436.106195,106.309737 435.30556,102.070046 433.702055,98.4674292 C432.09855,94.8648127 429.723484,91.7085977 426.630531,88.9898113 C423.535341,86.2755112 419.61268,83.9739643 414.916222,82.0896568 C410.222,80.2075926 404.805418,78.4892836 398.72686,76.9369732 C393.173857,75.6067418 388.616056,74.3303478 384.997547,73.1122777 C381.405874,71.8942075 378.587999,70.5639761 376.514848,69.1215836 C374.470771,67.6814344 373.06407,66.1291239 372.288036,64.4668956 C371.516475,62.802424 371.12734,60.8081986 371.12734,58.4819762" id="Fill-4"></path>
                    <polyline id="Fill-5" points="598.036075 60.1290673 598.036075 143.274487 618.289086 143.274487 618.289086 27.335264 596.539834 27.335264 561.178821 82.1584583 525.817808 27.335264 504.070796 27.335264 504.070796 143.274487 524.323807 143.274487 524.323807 60.4597986 560.679327 114.786896 561.344572 114.786896 598.036075 60.1290673"></polyline>
                    <path d="M788.452402,85.9448013 C788.452402,91.6107016 787.482804,96.9708232 785.541362,102.027414 C783.602165,107.081757 780.913324,111.468333 777.472596,115.189391 C774.036357,118.910448 769.90434,121.855817 765.081036,124.023249 C760.255488,126.190681 754.960851,127.272148 749.194882,127.272148 C743.426668,127.272148 738.102853,126.161452 733.223438,123.940059 C728.344023,121.716418 724.155896,118.717088 720.663546,114.94207 C717.171195,111.162554 714.453177,106.74675 712.511735,101.692407 C710.572538,96.638064 709.600695,91.275694 709.600695,85.612042 C709.600695,79.9438933 710.572538,74.5837718 712.511735,69.5294289 C714.453177,64.4728377 717.142017,60.0862617 720.580501,56.3629558 C724.018985,52.6418982 728.151001,49.6987778 732.974305,47.5313461 C737.797609,45.3661627 743.094491,44.2824469 748.86046,44.2824469 C754.628674,44.2824469 759.952488,45.3931432 764.831903,47.6167842 C769.709074,49.8381769 773.897201,52.8375067 777.389552,56.6147736 C780.884147,60.3897921 783.602165,64.8078453 785.541362,69.8621882 C787.482804,74.916531 788.452402,80.2789009 788.452402,85.9448013 Z M809.911504,85.612042 C809.911504,77.3897414 808.414462,69.6126187 805.420378,62.2784255 C802.428538,54.9487291 798.267344,48.5588526 792.945774,43.1155412 C787.621959,37.6699814 781.245502,33.3665952 773.811913,30.2008859 C766.382812,27.0351765 758.177135,25.4500734 749.194882,25.4500734 C740.210384,25.4500734 732.004707,27.0621569 724.573362,30.2840757 C717.142017,33.5059944 710.709449,37.8655899 705.275657,43.3651106 C699.83962,48.8646313 695.629049,55.2814883 692.63272,62.6134331 C689.638635,69.945378 688.141593,77.7225007 688.141593,85.9448013 C688.141593,94.1648535 689.638635,101.939728 692.63272,109.273921 C695.629049,116.608114 699.785754,122.995742 705.109568,128.439054 C710.431138,133.882365 716.80984,138.188 724.241185,141.353709 C731.670285,144.519418 739.875962,146.102273 748.86046,146.102273 C757.842714,146.102273 766.050635,144.49019 773.479735,141.270519 C780.913324,138.048601 787.343648,133.689005 792.779685,128.187236 C798.213477,122.689964 802.428538,116.273107 805.420378,108.941162 C808.414462,101.609217 809.911504,93.8320943 809.911504,85.612042 L809.911504,85.612042 Z" id="Fill-6"></path>
                    <path d="M895.021145,58.4819762 C895.021145,54.6012001 896.678324,51.303662 899.992682,48.589362 C903.309276,45.8705755 907.949824,44.5134255 913.918799,44.5134255 C919.221324,44.5134255 924.472411,45.5408217 929.665352,47.5911277 C934.858293,49.6414336 940.109381,52.6069747 945.414142,56.4855075 L956.352417,41.0229702 C950.385679,36.256121 944.002969,32.6265859 937.206522,30.134365 C930.412313,27.6399008 922.759322,26.3926687 914.249787,26.3926687 C908.504453,26.3926687 903.199692,27.1957426 898.364576,28.8041336 C893.502624,30.4102814 889.360795,32.7095852 885.905543,35.7020449 C882.452528,38.6967478 879.746474,42.2702023 877.753833,46.4268948 C875.794739,50.5835874 874.799538,55.2113568 874.799538,60.310203 C874.799538,65.7410463 875.656082,70.3418971 877.369171,74.110512 C879.08226,77.8791269 881.595984,81.0936657 884.854431,83.7541284 C888.115115,86.4145911 892.176433,88.6308956 896.984712,90.4052851 C901.817591,92.1796746 907.31692,93.7835792 913.5319,95.2259717 C918.946245,96.556203 923.338552,97.8303538 926.737893,99.048424 C930.105925,100.268737 932.760542,101.57205 934.721872,102.956119 C936.65413,104.342431 937.982556,105.865579 938.700444,107.527808 C939.418331,109.192279 939.778392,111.074343 939.778392,113.18073 C939.778392,117.727743 937.92441,121.33036 934.22539,123.988579 C930.521897,126.651285 925.521287,127.979273 919.221324,127.979273 C911.928395,127.979273 905.407027,126.675961 899.66393,124.071578 C893.918596,121.467196 888.226935,117.727743 882.588949,112.848733 L870.324484,127.481278 C877.284188,133.798194 884.854431,138.482044 893.032978,141.530584 C901.209288,144.579125 909.772497,146.102273 918.724841,146.102273 C924.8034,146.102273 930.38324,145.326118 935.468833,143.776051 C940.523117,142.221497 944.888586,139.949112 948.480259,136.956652 C952.098768,133.964193 954.916643,130.307739 956.960721,125.985048 C958.975725,121.662357 960,116.729509 960,111.186505 C960,106.309737 959.197129,102.070046 957.595861,98.4674292 C955.992356,94.8648127 953.61729,91.7085977 950.5221,88.9898113 C947.429147,86.2755112 943.506486,83.9739643 938.810028,82.0896568 C934.113569,80.2075926 928.696987,78.4892836 922.620665,76.9369732 C917.067662,75.6067418 912.509861,74.3303478 908.891352,73.1122777 C905.29968,71.8942075 902.481805,70.5639761 900.408654,69.1215836 C898.364576,67.6814344 896.955639,66.1291239 896.181841,64.4668956 C895.41028,62.802424 895.021145,60.8081986 895.021145,58.4819762" id="Fill-7"></path>
                    <path d="M245.600152,50.5451136 L190.105735,105.961964 C189.390184,104.575479 188.74417,103.130757 188.165449,101.632278 C186.227406,96.5970296 185.258385,91.2549178 185.258385,85.6126621 C185.258385,79.9659267 186.227406,74.6260547 188.165449,69.5908063 C190.105735,64.553318 192.792975,60.1833137 196.229411,56.4740738 C199.665848,52.7670738 203.795404,49.8350719 208.615837,47.6758284 C213.438513,45.5188247 218.729997,44.439203 224.492534,44.439203 C230.257314,44.439203 235.577959,45.5457033 240.452226,47.7609438 C242.264655,48.5829795 243.98063,49.5102894 245.600152,50.5451136 Z M240.703454,123.878758 C235.880778,126.038002 230.589293,127.115383 224.826757,127.115383 C219.061977,127.115383 213.741332,126.008883 208.864822,123.795883 C207.054636,122.971607 205.338661,122.044297 203.721382,121.007233 L259.213556,65.5948619 C259.929106,66.9791072 260.575121,68.4215894 261.153842,69.9223084 C263.091884,74.9575568 264.060906,80.2996687 264.060906,85.9441642 C264.060906,91.5886598 263.091884,96.9285317 261.153842,101.96602 C259.213556,107.001268 256.526316,111.371273 253.089879,115.078273 C249.653443,118.785273 245.526129,121.719515 240.703454,123.878758 Z M249.099396,141.060871 C256.526316,137.851124 262.955055,133.507999 268.385612,128.027014 C273.816169,122.55051 278.026477,116.157895 281.018779,108.853649 C284.013325,101.549402 285.509476,93.8016604 285.509476,85.6126621 C285.509476,77.4214239 284.013325,69.6736818 281.018779,62.367196 C279.244483,58.0352696 277.059699,54.0348454 274.46667,50.3636834 L310.560472,14.3217875 L296.218059,0 L260.014344,36.15165 C256.764085,33.9386494 253.235681,32.0257925 249.431375,30.4108397 C242.004455,27.2570898 233.803663,25.6779749 224.826757,25.6779749 C215.847608,25.6779749 207.646816,27.2839683 200.219895,30.4937152 C192.792975,33.7034621 186.364236,38.0465878 180.933679,43.5253323 C175.503121,49.0040767 171.29057,55.3966919 168.298268,62.7009379 C165.305966,70.005184 163.809815,77.7529261 163.809815,85.9441642 C163.809815,94.1331625 165.305966,101.878665 168.298268,109.185151 C170.074807,113.519317 172.259592,117.519741 174.852621,121.193143 L138.761062,157.230559 L153.103475,171.552347 L189.304946,135.402936 C192.555205,137.615937 196.08361,139.528794 199.887916,141.143747 C207.314836,144.297497 215.515628,145.874372 224.492534,145.874372 C233.471683,145.874372 241.672475,144.268378 249.099396,141.060871 L249.099396,141.060871 Z" id="Fill-8"></path>
                </g>
            </g>
            <g id="brandmark/256" transform="translate(128.000000, 640.000000)">
                <g id="Inner-Border">
                    <use fill="#FFFFFF" fill-rule="evenodd" xlink:href="#path-1"></use>
                    <path stroke="#B8B8B8" stroke-width="2.5" d="M128,1.49576 C58.1336839,1.49576 1.49576,58.1336839 1.49576,128 C1.49576,197.866316 58.1336839,254.50424 128,254.50424 C197.866316,254.50424 254.50424,197.866316 254.50424,128 C254.50424,58.1336839 197.866316,1.49576 128,1.49576 Z"></path>
                </g>
                <path d="M128,54.245828 C168.7333,54.245828 201.754172,87.2667 201.754172,128 C201.754172,168.7333 168.7333,201.754172 128,201.754172 C87.2667,201.754172 54.245828,168.7333 54.245828,128 C54.245828,87.2667 87.2667,54.245828 128,54.245828 Z" id="15mm-Inset-Area" fill="#DDDDDD" fill-rule="evenodd"></path>
                <g id="Ellipse-1">
                    <use fill-opacity="0" fill="#000000" fill-rule="evenodd" xlink:href="#path-2"></use>
                    <path stroke="#000000" stroke-width="5" d="M128.01145,18.923 C123.159346,18.923 117.325749,30.1228612 112.99351,49.787468 C108.434944,70.4794055 105.82015,98.5406407 105.82015,128.5 C105.82015,158.459359 108.434944,186.520595 112.99351,207.212532 C117.325749,226.877139 123.159346,238.077 128.01145,238.077 C132.863531,238.077 138.697128,226.877129 143.029371,207.212531 C147.587948,186.520577 150.20275,158.459338 150.20275,128.5 C150.20275,98.5406617 147.587948,70.4794231 143.029371,49.7874687 C138.697128,30.1228705 132.863531,18.923 128.01145,18.923 Z"></path>
                </g>
                <g id="Ellipse-1-copy">
                    <use fill-opacity="0" fill="#000000" fill-rule="evenodd" xlink:href="#path-3"></use>
                    <path stroke="#000000" stroke-width="5" d="M222.494964,73.5038815 L222.494986,73.5039195 C220.047026,69.2733193 207.447235,69.7745158 188.284851,75.7925374 C168.128186,82.122817 142.585927,93.8076383 116.71947,108.708815 C90.8531482,123.609856 67.9404941,139.838936 52.3681174,154.091367 C37.5667202,167.638169 30.8346892,178.270724 33.2795416,182.496081 C35.7275021,186.726681 48.327293,186.225484 67.4896767,180.207463 C87.6463421,173.877183 113.188601,162.192362 139.055058,147.291185 C164.921415,132.390124 187.83406,116.16107 203.406412,101.908677 C218.207822,88.3618775 224.939843,77.7293271 222.494964,73.5038815 Z"></path>
                </g>
                <g id="Ellipse-1-copy-2">
                    <use fill-opacity="0" fill="#000000" fill-rule="evenodd" xlink:href="#path-4"></use>
                    <path stroke="#000000" stroke-width="5" d="M222.494986,182.496081 L222.49497,182.496109 C224.939839,178.270724 218.207808,167.638169 203.406411,154.091367 C187.834034,139.838936 164.92138,123.609856 139.055055,108.708813 C113.188601,93.8076383 87.6463421,82.122817 67.4896767,75.7925374 C48.327293,69.7745158 35.7275021,69.2733193 33.2795635,73.5038815 C30.8346846,77.7293271 37.5667056,88.3618775 52.3681164,101.908677 C67.9404681,116.16107 90.8531127,132.390124 116.719473,147.291187 C142.585927,162.192362 168.128186,173.877183 188.284851,180.207463 C207.447235,186.225484 220.047026,186.726681 222.494986,182.496081 Z"></path>
                </g>
                <path d="M57.0112,96.358224 C61.233696,96.358224 64.65672,99.782912 64.65672,104.007472 C64.65672,108.232032 61.233696,111.65672 57.0112,111.65672 C52.788704,111.65672 49.36568,108.232032 49.36568,104.007472 C49.36568,99.782912 52.788704,96.358224 57.0112,96.358224 Z" id="Dot-copy" fill="#000000" fill-rule="evenodd"></path>
                <path d="M181.97016,69.432848 C186.19472,69.432848 189.619408,72.85752 189.619408,77.082096 C189.619408,81.306656 186.19472,84.731344 181.97016,84.731344 C177.745584,84.731344 174.320912,81.306656 174.320912,77.082096 C174.320912,72.85752 177.745584,69.432848 181.97016,69.432848 Z" id="Dot-copy-2" fill="#000000" fill-rule="evenodd"></path>
                <path d="M111.888064,193.373136 C116.112624,193.373136 119.537312,196.796144 119.537312,201.018656 C119.537312,205.241152 116.112624,208.664176 111.888064,208.664176 C107.663504,208.664176 104.238816,205.241152 104.238816,201.018656 C104.238816,196.796144 107.663504,193.373136 111.888064,193.373136 Z" id="Dot-copy-3" fill="#000000" fill-rule="evenodd"></path>
                <path d="M127.502943,114.363285 C134.75976,114.363285 140.642574,120.246099 140.642574,127.502943 C140.642574,134.75976 134.75976,140.642574 127.502943,140.642574 C120.246126,140.642574 114.363285,134.75976 114.363285,127.502943 C114.363285,120.246099 120.246126,114.363285 127.502943,114.363285 Z" id="Nucleus" fill="#000000" fill-rule="evenodd"></path>
            </g>
        </g>
    </g>
</svg>