<?xml version="1.0" encoding="UTF-8"?>
<svg width="1024px" height="512px" viewBox="0 0 1024 512" version="1.1" xmlns="http://www.w3.org/2000/svg" xmlns:xlink="http://www.w3.org/1999/xlink" style="background: #15182D;">
    <!-- Generator: Sketch 49.1 (51147) - http://www.bohemiancoding.com/sketch -->
    <title>project/cosmos-forum</title>
    <desc>Created with Sketch.</desc>
    <defs>
        <path d="M146.503314,18.72222 C162.359953,18.72222 175.214358,75.925824 175.214358,146.49 C175.214358,217.054176 162.359953,274.25778 146.503314,274.25778 C130.646617,274.25778 117.79227,217.054176 117.79227,146.49 C117.79227,75.925824 130.646617,18.72222 146.503314,18.72222 Z" id="path-1"></path>
        <path d="M258.350852,82.4074901 C266.205331,96.0298927 222.943509,135.763648 161.722841,171.155327 C100.502172,206.547145 44.505592,224.194775 36.6508746,210.57251 C28.7963954,196.950245 72.0582167,157.216352 133.278885,121.824673 C194.499554,86.4328552 250.496134,68.7852254 258.350852,82.4074901 Z" id="path-2"></path>
        <path d="M258.350852,210.57251 C250.496134,224.194775 194.499554,206.547145 133.278885,171.155327 C72.0582167,135.763648 28.7963954,96.0298927 36.6508746,82.4074901 C44.505592,68.7852254 100.502172,86.4328552 161.722841,121.824673 C222.943509,157.216352 266.205331,196.950245 258.350852,210.57251 Z" id="path-3"></path>
    </defs>
    <g id="project/cosmos-forum" stroke="none" stroke-width="1" fill="none" fill-rule="evenodd">
        <g id="cosmos-project">
            <rect id="Rectangle" fill="#15182D" fill-rule="evenodd" x="0" y="0" width="1024" height="512"></rect>
            <g id="project-text" transform="translate(448.000000, 128.000000)" fill="#FFFFFF" font-size="100" line-spacing="128">
                <text id="Photon" font-family="SFProDisplay-Heavy, SF Pro Display" font-weight="600" letter-spacing="-1.85185182">
                    <tspan x="0" y="223">Forum</tspan>
                </text>
                <text id="COSMOS" font-family="SFProDisplay-Light, SF Pro Display" font-weight="300">
                    <tspan x="0" y="95">COSMOS</tspan>
                </text>
            </g>
            <g id="brandmark/256" transform="translate(96.000000, 110.000000)">
                <path d="M145.92,0.2801664 C226.354606,0.2801664 291.559834,65.4853939 291.559834,145.92 C291.559834,226.354606 226.354606,291.559834 145.92,291.559834 C65.4853939,291.559834 0.2801664,226.354606 0.2801664,145.92 C0.2801664,65.4853939 65.4853939,0.2801664 145.92,0.2801664 Z" id="Inner-Border" fill="#2E3148" fill-rule="evenodd"></path>
                <path d="M145.92,61.8402439 C192.355962,61.8402439 229.999756,99.484038 229.999756,145.92 C229.999756,192.355962 192.355962,229.999756 145.92,229.999756 C99.484038,229.999756 61.8402439,192.355962 61.8402439,145.92 C61.8402439,99.484038 99.484038,61.8402439 145.92,61.8402439 Z" id="15mm-Inset-Area" fill="#1B1E36" fill-rule="evenodd"></path>
                <g id="Ellipse-1">
                    <use fill-opacity="0" fill="#000000" fill-rule="evenodd" xlink:href="#path-1"></use>
                    <path stroke="#6F7390" stroke-width="5.7" d="M146.503314,21.57222 C140.802703,21.57222 134.024501,34.3304537 128.98219,56.7693929 C123.682379,80.3542391 120.64227,112.340118 120.64227,146.49 C120.64227,180.639882 123.682379,212.625761 128.98219,236.210607 C134.024501,258.649546 140.802703,271.40778 146.503314,271.40778 C152.203899,271.40778 158.982101,258.649536 164.024417,236.210606 C169.324239,212.625741 172.364358,180.639858 172.364358,146.49 C172.364358,112.340142 169.324239,80.3542592 164.024417,56.7693938 C158.982101,34.3304643 152.203899,21.57222 146.503314,21.57222 Z"></path>
                </g>
                <g id="Ellipse-1-copy">
                    <use fill-opacity="0" fill="#000000" fill-rule="evenodd" xlink:href="#path-2"></use>
                    <path stroke="#6F7390" stroke-width="5.7" d="M255.881862,83.8310736 L255.881887,83.8311168 C253.072188,78.9583172 238.639817,79.5344247 216.683758,86.4540053 C193.594128,93.7308374 164.335381,107.162806 134.705273,124.292044 C105.075135,141.421232 78.8283271,160.07713 60.9895472,176.461146 C44.0247019,192.042498 36.3082351,204.272632 39.1198393,209.148883 C41.9295384,214.021683 56.3619088,213.445575 78.3179678,206.525995 C101.407598,199.249163 130.666345,185.817194 160.296453,168.687956 C189.926632,151.558745 216.173429,132.902877 234.01218,116.518904 C250.977041,100.937555 258.693496,88.707427 255.881862,83.8310736 Z"></path>
                </g>
                <g id="Ellipse-1-copy-2">
                    <use fill-opacity="0" fill="#000000" fill-rule="evenodd" xlink:href="#path-3"></use>
                    <path stroke="#6F7390" stroke-width="5.7" d="M255.881887,209.148883 L255.881868,209.148916 C258.693491,204.272632 250.977024,192.042498 234.012179,176.461146 C216.173399,160.07713 189.926591,141.421232 160.296449,124.292041 C130.666345,107.162806 101.407598,93.7308374 78.3179678,86.4540053 C56.3619088,79.5344247 41.9295384,78.9583172 39.1198643,83.8310736 C36.3082299,88.707427 44.0246852,100.937555 60.9895461,116.518904 C78.8282973,132.902877 105.075094,151.558745 134.705277,168.687959 C164.335381,185.817194 193.594128,199.249163 216.683758,206.525995 C238.639817,213.445575 253.072188,214.021683 255.881887,209.148883 Z"></path>
                </g>
                <path d="M65.563566,111.013899 C70.6780643,111.013899 74.8242021,115.162052 74.8242021,120.27905 C74.8242021,125.396049 70.6780643,129.544202 65.563566,129.544202 C60.4490677,129.544202 56.3029299,125.396049 56.3029299,120.27905 C56.3029299,115.162052 60.4490677,111.013899 65.563566,111.013899 Z" id="Dot-copy" fill="#B7B9C8" fill-rule="evenodd"></path>
                <path d="M208.013856,80.3242871 C213.130855,80.3242871 217.279008,84.4724211 217.279008,89.5894388 C217.279008,94.7064371 213.130855,98.8545904 208.013856,98.8545904 C202.896839,98.8545904 198.748705,94.7064371 198.748705,89.5894388 C198.748705,84.4724211 202.896839,80.3242871 208.013856,80.3242871 Z" id="Dot-copy-2" fill="#B7B9C8" fill-rule="evenodd"></path>
                <path d="M129.254418,220.471961 C134.371416,220.471961 138.519569,224.618079 138.519569,229.732597 C138.519569,234.847095 134.371416,238.993233 129.254418,238.993233 C124.137419,238.993233 119.989266,234.847095 119.989266,229.732597 C119.989266,224.618079 124.137419,220.471961 129.254418,220.471961 Z" id="Dot-copy-3" fill="#B7B9C8" fill-rule="evenodd"></path>
                <path d="M147.063479,131.529484 C155.64265,131.529484 162.597443,138.484277 162.597443,147.063479 C162.597443,155.64265 155.64265,162.597443 147.063479,162.597443 C138.484309,162.597443 131.529484,155.64265 131.529484,147.063479 C131.529484,138.484277 138.484309,131.529484 147.063479,131.529484 Z" id="Nucleus" fill="#B7B9C8" fill-rule="evenodd"></path>
            </g>
        </g>
    </g>
</svg>